<?xml version="1.0" encoding="UTF-8"?>
<svg width="1576.5" height="808.5" version="1.1" viewBox="0 0 417.11 213.91" xmlns="http://www.w3.org/2000/svg" xmlns:cc="http://creativecommons.org/ns#" xmlns:dc="http://purl.org/dc/elements/1.1/" xmlns:rdf="http://www.w3.org/1999/02/22-rdf-syntax-ns#">
    <metadata>
        <rdf:RDF>
            <cc:Work rdf:about="">
                <dc:format>image/svg+xml</dc:format>
                <dc:type rdf:resource="http://purl.org/dc/dcmitype/StillImage"/>
                <dc:title/>
            </cc:Work>
        </rdf:RDF>
    </metadata>
    <g transform="translate(126.16 3.3919)">
        <g>
            <rect x="-126.16" y="-3.3919" width="417.11" height="213.91" fill="#333"/>
            <g fill="#e9e9e9" stroke-width=".26458">
                <path d="m14.594 72.94h-0.84761l-1.3613-1.8879q-0.50086 0.44949-1.0659 0.84761-0.55223 0.38528-1.1687 0.68066-0.61645 0.28254-1.2714 0.44949-0.64213 0.16695-1.3099 0.16695-1.4512 0-2.7355-0.48802-1.2714-0.48802-2.2346-1.4127-0.95035-0.93751-1.5026-2.286-0.55223-1.3485-0.55223-3.0694 0-1.6053 0.55223-2.941 0.55223-1.3485 1.5026-2.3117 0.9632-0.9632 2.2346-1.4897 1.2843-0.53939 2.7355-0.53939 0.66782 0 1.3228 0.16695 0.65497 0.16695 1.2714 0.46234 0.61645 0.29538 1.1687 0.6935 0.56508 0.39812 1.0531 0.86046l1.3613-1.631h0.84761zm-3.5317-6.9992q0-0.71919-0.28254-1.387-0.2697-0.68066-0.74487-1.1944-0.47518-0.52655-1.1173-0.83477-0.62929-0.32107-1.3485-0.32107-0.71919 0-1.3613 0.24401-0.62929 0.24401-1.1045 0.71919-0.46233 0.47518-0.73203 1.1815-0.2697 0.6935-0.2697 1.5925t0.2697 1.6053q0.2697 0.6935 0.73203 1.1687 0.47518 0.47518 1.1045 0.71919 0.64213 0.24401 1.3613 0.24401 0.71919 0 1.3485-0.30822 0.64213-0.32106 1.1173-0.83477 0.47518-0.52655 0.74487-1.1944 0.28254-0.68066 0.28254-1.3998z" style="font-variant-caps:normal;font-variant-east-asian:normal;font-variant-ligatures:normal;font-variant-numeric:normal"/>
                <path d="m22.099 72.94h-3.5317v-19.225h3.5317z" style="font-variant-caps:normal;font-variant-east-asian:normal;font-variant-ligatures:normal;font-variant-numeric:normal"/>
                <path d="m31.569 69.575q0.20548 0.06421 0.41096 0.0899 0.20548 0.01284 0.41096 0.01284 0.5137 0 0.98888-0.14127t0.88614-0.39812q0.42381-0.2697 0.74487-0.64213 0.33391-0.38528 0.53939-0.84761l2.5685 2.5814q-0.48802 0.6935-1.1302 1.2457-0.62929 0.55223-1.3742 0.93751-0.73203 0.38528-1.554 0.57792-0.80909 0.20548-1.6695 0.20548-1.4512 0-2.7355-0.53939-1.2714-0.53939-2.2346-1.5026-0.95035-0.9632-1.5026-2.286-0.55223-1.3356-0.55223-2.9281 0-1.631 0.55223-2.9795t1.5026-2.2988q0.9632-0.95035 2.2346-1.4769 1.2843-0.52655 2.7355-0.52655 0.86046 0 1.6824 0.20548t1.554 0.59076q0.74487 0.38528 1.387 0.95035 0.64213 0.55223 1.1302 1.2457zm1.798-7.2304q-0.24401-0.0899-0.48802-0.11558-0.23117-0.02569-0.48802-0.02569-0.71919 0-1.3613 0.2697-0.62929 0.25685-1.1045 0.74487-0.46234 0.48802-0.73203 1.1815-0.2697 0.68066-0.2697 1.5411 0 0.19264 0.01284 0.43665 0.02568 0.24401 0.06421 0.50086 0.05137 0.24401 0.11558 0.47518 0.06421 0.23117 0.16695 0.41096z" style="font-variant-caps:normal;font-variant-east-asian:normal;font-variant-ligatures:normal;font-variant-numeric:normal"/>
                <path d="m53.779 72.94h-4.2894l-2.7355-4.2124-2.7612 4.2124h-4.2894l5.0215-7.0506-5.0215-6.7809h4.2894l2.7612 3.9427 2.7355-3.9427h4.2894l-5.0343 6.7809z" style="font-variant-caps:normal;font-variant-east-asian:normal;font-variant-ligatures:normal;font-variant-numeric:normal"/>
                <path d="m78.794 65.94q0 1.6182-0.55223 2.9538t-1.5026 2.2988q-0.95036 0.95036-2.2346 1.4769-1.2714 0.52655-2.7355 0.52655-1.4512 0-2.7355-0.53939-1.2714-0.53939-2.2346-1.5026-0.95035-0.9632-1.5026-2.286-0.55223-1.3356-0.55223-2.9281v-12.226h3.5189v6.4213q0.28254-0.35959 0.68066-0.64213 0.41096-0.28254 0.8733-0.46234 0.47518-0.1798 0.97604-0.2697 0.50086-0.10274 0.97604-0.10274 1.4641 0 2.7355 0.55223 1.2843 0.53939 2.2346 1.5154 0.95035 0.97604 1.5026 2.3117 0.55223 1.3228 0.55223 2.9024zm-3.5317 0q0-0.79624-0.28254-1.4769-0.2697-0.6935-0.74487-1.1944-0.47518-0.50086-1.1173-0.7834-0.62929-0.28254-1.3485-0.28254t-1.3613 0.32107q-0.62929 0.30822-1.1045 0.83477-0.47518 0.5137-0.74487 1.1944-0.2697 0.66782-0.2697 1.387 0 0.79624 0.2697 1.4769t0.74487 1.1815q0.47518 0.50086 1.1045 0.79624 0.64213 0.28254 1.3613 0.28254t1.3485-0.28254q0.64213-0.29538 1.1173-0.79624 0.47518-0.50086 0.74487-1.1815 0.28254-0.68066 0.28254-1.4769z" style="font-variant-caps:normal;font-variant-east-asian:normal;font-variant-ligatures:normal;font-variant-numeric:normal"/>
                <path d="m85.567 72.94h-3.506v-13.754h0.84761l1.1558 1.631q0.84761-0.77056 1.9264-1.1815 1.0788-0.42381 2.2346-0.42381h3.0951v3.4932h-3.0951q-0.55223 0-1.0403 0.20548-0.48802 0.20548-0.84761 0.56508-0.35959 0.35959-0.56508 0.84761t-0.20548 1.0403z" style="font-variant-caps:normal;font-variant-east-asian:normal;font-variant-ligatures:normal;font-variant-numeric:normal"/>
                <path d="m107.35 72.94h-0.84761l-1.3613-1.8879q-0.50086 0.44949-1.0659 0.84761-0.55223 0.38528-1.1687 0.68066-0.61644 0.28254-1.2714 0.44949-0.64213 0.16695-1.31 0.16695-1.4512 0-2.7355-0.48802-1.2714-0.48802-2.2346-1.4127-0.95035-0.93751-1.5026-2.286-0.55223-1.3485-0.55223-3.0694 0-1.6053 0.55223-2.941 0.55223-1.3485 1.5026-2.3117 0.9632-0.9632 2.2346-1.4897 1.2843-0.53939 2.7355-0.53939 0.66782 0 1.3228 0.16695 0.65497 0.16695 1.2714 0.46234 0.61644 0.29538 1.1687 0.6935 0.56508 0.39812 1.0531 0.86046l1.3613-1.631h0.84761zm-3.5317-6.9992q0-0.71919-0.28254-1.387-0.26969-0.68066-0.74487-1.1944-0.47518-0.52655-1.1173-0.83477-0.62929-0.32107-1.3485-0.32107-0.71918 0-1.3613 0.24401-0.62929 0.24401-1.1045 0.71919-0.46233 0.47518-0.73203 1.1815-0.2697 0.6935-0.2697 1.5925t0.2697 1.6053q0.2697 0.6935 0.73203 1.1687 0.47518 0.47518 1.1045 0.71919 0.64213 0.24401 1.3613 0.24401 0.71919 0 1.3485-0.30822 0.64213-0.32106 1.1173-0.83477 0.47518-0.52655 0.74487-1.1944 0.28254-0.68066 0.28254-1.3998z" style="font-variant-caps:normal;font-variant-east-asian:normal;font-variant-ligatures:normal;font-variant-numeric:normal"/>
                <path d="m124.64 72.94h-0.84762l-1.3613-1.8879q-0.50087 0.44949-1.0659 0.84761-0.55223 0.38528-1.1687 0.68066-0.61645 0.28254-1.2714 0.44949-0.64213 0.16695-1.31 0.16695-1.4512 0-2.7355-0.53939-1.2714-0.55223-2.2346-1.5154-0.95035-0.97604-1.5026-2.2988-0.55224-1.3356-0.55224-2.9024 0-1.554 0.55224-2.8896 0.55223-1.3356 1.5026-2.3117 0.9632-0.97604 2.2346-1.5283 1.2843-0.55223 2.7355-0.55223 0.46234 0 0.95036 0.07706 0.50086 0.07706 0.96319 0.25685 0.47518 0.16696 0.88614 0.44949 0.41097 0.28254 0.69351 0.6935v-6.4213h3.5317zm-3.5317-6.9992q0-0.71919-0.28254-1.387-0.2697-0.68066-0.74487-1.1944-0.47518-0.52655-1.1173-0.83477-0.62929-0.32107-1.3485-0.32107t-1.3613 0.25685q-0.62929 0.25685-1.1045 0.74487-0.46234 0.47518-0.73203 1.1687-0.2697 0.6935-0.2697 1.5668 0 0.75772 0.2697 1.4384 0.26969 0.68066 0.73203 1.1944 0.47517 0.5137 1.1045 0.80909 0.64213 0.29538 1.3613 0.29538t1.3485-0.30822q0.64213-0.32106 1.1173-0.83477 0.47517-0.52655 0.74487-1.1944 0.28254-0.68066 0.28254-1.3998z" style="font-variant-caps:normal;font-variant-east-asian:normal;font-variant-ligatures:normal;font-variant-numeric:normal"/>
                <path d="m131.96 78.179v-3.5317l1.9521 0.02568q0.5137 0 0.98888-0.16695t0.8733-0.46233q0.41096-0.29538 0.71918-0.70634 0.30823-0.39812 0.50087-0.8733-0.57792 0.24401-1.1815 0.48802-0.59077 0.24401-1.1944 0.24401-1.2714 0-2.3887-0.44949t-1.9649-1.2714q-0.83477-0.83477-1.3228-2.0163-0.47518-1.1944-0.47518-2.6713v-7.6028h3.4932v7.6028q0 0.73203 0.20548 1.2843 0.21832 0.53939 0.57792 0.91183 0.35959 0.35959 0.83477 0.53939 0.48802 0.1798 1.0402 0.1798 0.53939 0 1.0146-0.24401 0.48802-0.25685 0.84761-0.66782 0.3596-0.41096 0.56508-0.92467 0.20548-0.52655 0.20548-1.0788v-7.6028h3.5317v12.021q-0.0128 1.4512-0.56507 2.7226-0.55224 1.2714-1.5154 2.2218-0.95036 0.95036-2.2218 1.5026t-2.7226 0.55223z" style="font-variant-caps:normal;font-variant-east-asian:normal;font-variant-ligatures:normal;font-variant-numeric:normal"/>
                <path d="m147.89 60.315h-2.6584l-0.52654-5.792h3.7115z" style="font-variant-caps:normal;font-variant-east-asian:normal;font-variant-ligatures:normal;font-variant-numeric:normal"/>
                <path d="m159.89 72.94h-8.0138v-3.4932h8.0138q0.3596 0 0.61645-0.25685 0.25685-0.25685 0.25685-0.61645 0-0.37244-0.25685-0.48802-0.25685-0.11558-0.61645-0.11558h-3.6473q-0.91183 0-1.7081-0.34675-0.79625-0.34675-1.387-0.93751-0.59076-0.6036-0.93751-1.3998-0.33391-0.79624-0.33391-1.7081 0-0.91183 0.33391-1.7081 0.34675-0.79624 0.93751-1.387t1.387-0.92467q0.79624-0.34675 1.7081-0.34675h7.102v3.4932h-7.102q-0.3596 0-0.61645 0.25685-0.25685 0.25685-0.25685 0.61645 0 0.37244 0.25685 0.64213 0.25685 0.25685 0.61645 0.25685h3.6473q0.89899 0 1.6952 0.30822 0.79624 0.29538 1.387 0.83477t0.93751 1.2971q0.34676 0.75772 0.34676 1.6567 0 0.91183-0.34676 1.7081-0.34675 0.7834-0.93751 1.387-0.59076 0.59076-1.387 0.93751-0.79624 0.33391-1.6952 0.33391z" style="font-variant-caps:normal;font-variant-east-asian:normal;font-variant-ligatures:normal;font-variant-numeric:normal"/>
                <path d="m12.92 111.51q-3.494 0-6.3349-1.5021-2.8082-1.5347-4.4409-4.2124-1.6-2.7103-1.6-6.1063 0-3.396 1.6-6.0736 1.6327-2.7103 4.4409-4.2124 2.8409-1.5347 6.3675-1.5347 2.9715 0 5.3552 1.0449 2.4164 1.0449 4.0491 3.0042l-3.396 3.1348q-2.3184-2.6776-5.7471-2.6776-2.1225 0-3.7878 0.94697-1.6654 0.91431-2.6123 2.5797-0.91431 1.6653-0.91431 3.7878 0 2.1225 0.91431 3.7878 0.94696 1.6654 2.6123 2.6123 1.6654 0.91431 3.7878 0.91431 3.4287 0 5.7471-2.7103l3.396 3.1348q-1.6327 1.9919-4.0491 3.0368-2.4164 1.0449-5.3879 1.0449z" style="font-variant-caps:normal;font-variant-east-asian:normal;font-variant-ligatures:normal;font-variant-numeric:normal"/>
                <path d="m34.076 111.38q-2.7756 0-4.996-1.1429-2.1878-1.1755-3.4287-3.2327-1.2408-2.0572-1.2408-4.6695 0-2.6123 1.2408-4.6695 1.2408-2.0572 3.4287-3.2001 2.2205-1.1755 4.996-1.1755t4.9634 1.1755q2.1878 1.1429 3.4286 3.2001 1.2408 2.0572 1.2408 4.6695 0 2.6123-1.2408 4.6695-1.2408 2.0572-3.4286 3.2327-2.1878 1.1429-4.9634 1.1429zm0-4.1797q1.9592 0 3.2001-1.3062 1.2735-1.3388 1.2735-3.5593 0-2.2205-1.2735-3.5266-1.2408-1.3388-3.2001-1.3388-1.9592 0-3.2327 1.3388-1.2735 1.3062-1.2735 3.5266 0 2.2205 1.2735 3.5593 1.2735 1.3062 3.2327 1.3062z" style="font-variant-caps:normal;font-variant-east-asian:normal;font-variant-ligatures:normal;font-variant-numeric:normal"/>
                <path d="m65.596 93.554v17.568h-4.8328v-2.0898q-1.0123 1.1429-2.4164 1.7633-1.4041 0.58777-3.0368 0.58777-3.4613 0-5.4858-1.9919-2.0246-1.9919-2.0246-5.9104v-9.9268h5.094v9.1758q0 4.245 3.5593 4.245 1.8286 0 2.9388-1.1755 1.1102-1.2082 1.1102-3.5593v-8.6859z" style="font-variant-caps:normal;font-variant-east-asian:normal;font-variant-ligatures:normal;font-variant-numeric:normal"/>
                <path d="m76.029 95.872q0.91431-1.2735 2.449-1.9266 1.5674-0.65308 3.5919-0.65308v4.7022q-0.849-0.0653-1.1429-0.0653-2.1878 0-3.4287 1.2408-1.2408 1.2082-1.2408 3.6572v8.2941h-5.094v-17.568h4.8654z" style="font-variant-caps:normal;font-variant-east-asian:normal;font-variant-ligatures:normal;font-variant-numeric:normal"/>
                <path d="m91.922 111.38q-2.1878 0-4.2777-0.52246-2.0898-0.55511-3.3307-1.3715l1.698-3.6572q1.1755 0.75104 2.8409 1.2408 1.6654 0.45715 3.2654 0.45715 3.2327 0 3.2327-1.6 0-0.75104-0.88166-1.0776t-2.7103-0.55511q-2.1552-0.32654-3.5593-0.75104t-2.449-1.5021q-1.0123-1.0776-1.0123-3.0695 0-1.6654 0.94696-2.9388 0.97962-1.3062 2.8082-2.0245 1.8613-0.71839 4.3756-0.71839 1.8613 0 3.6899 0.4245 1.8613 0.39185 3.0695 1.1102l-1.698 3.6246q-2.3184-1.3062-5.0614-1.3062-1.6327 0-2.449 0.45716-0.81635 0.45715-0.81635 1.1755 0 0.81635 0.88165 1.1429 0.88166 0.32654 2.8082 0.62043 2.1552 0.35919 3.5266 0.78369 1.3715 0.39185 2.3837 1.4694 1.0123 1.0776 1.0123 3.0042 0 1.6327-0.97962 2.9062-0.97962 1.2735-2.8735 1.9919-1.8613 0.68573-4.4409 0.68573z" style="font-variant-caps:normal;font-variant-east-asian:normal;font-variant-ligatures:normal;font-variant-numeric:normal"/>
                <path d="m121.38 102.4q0 0.098-0.098 1.3715h-13.29q0.35919 1.6327 1.698 2.5796 1.3388 0.94697 3.3307 0.94697 1.3715 0 2.4164-0.39185 1.0776-0.4245 1.9919-1.3062l2.7103 2.9388q-2.4817 2.8409-7.2492 2.8409-2.9715 0-5.2573-1.1429-2.2858-1.1755-3.5266-3.2327-1.2408-2.0572-1.2408-4.6695 0-2.5796 1.2082-4.6368 1.2408-2.0898 3.3634-3.2327 2.1552-1.1755 4.8001-1.1755 2.5797 0 4.6695 1.1102 2.0898 1.1102 3.2654 3.2001 1.2082 2.0572 1.2082 4.8001zm-9.1104-5.2573q-1.7307 0-2.9062 0.97962t-1.4368 2.6776h8.6533q-0.26123-1.6654-1.4368-2.645-1.1755-1.0123-2.8735-1.0123z" style="font-variant-caps:normal;font-variant-east-asian:normal;font-variant-ligatures:normal;font-variant-numeric:normal"/>
                <path d="m135.66 93.554h5.094v17.568h-5.094zm2.547-2.449q-1.4041 0-2.2858-0.81635-0.88166-0.81634-0.88166-2.0245 0-1.2082 0.88166-2.0245 0.88165-0.81635 2.2858-0.81635t2.2858 0.7837q0.88166 0.78369 0.88166 1.9592 0 1.2735-0.88166 2.1225-0.88165 0.81635-2.2858 0.81635z" style="font-variant-caps:normal;font-variant-east-asian:normal;font-variant-ligatures:normal;font-variant-numeric:normal"/>
                <path d="m156.97 93.292q3.2654 0 5.2573 1.9592 2.0245 1.9592 2.0245 5.8124v10.057h-5.094v-9.2737q0-2.0898-0.91431-3.1021-0.91431-1.0449-2.645-1.0449-1.9266 0-3.0695 1.2082-1.1429 1.1755-1.1429 3.5266v8.6859h-5.094v-17.568h4.8654v2.0572q1.0123-1.1102 2.5144-1.698 1.5021-0.62043 3.298-0.62043z" style="font-variant-caps:normal;font-variant-east-asian:normal;font-variant-ligatures:normal;font-variant-numeric:normal"/>
                <path d="m24.13 153.12-0.037-15.552-7.6277 12.812h-2.703l-7.5907-12.478v15.218h-5.6282v-25.919h4.9617l9.7013 16.107 9.5532-16.107h4.9247l0.074 25.919z" style="font-variant-caps:normal;font-variant-east-asian:normal;font-variant-ligatures:normal;font-variant-numeric:normal"/>
                <path d="m36.427 133.2h5.7763v19.921h-5.7763zm2.8882-2.7771q-1.5922 0-2.592-0.92569-0.99975-0.9257-0.99975-2.2957 0-1.37 0.99975-2.2957 0.99975-0.92569 2.592-0.92569t2.592 0.88866q0.99975 0.88867 0.99975 2.2217 0 1.4441-0.99975 2.4068-0.99975 0.92569-2.592 0.92569z" style="font-variant-caps:normal;font-variant-east-asian:normal;font-variant-ligatures:normal;font-variant-numeric:normal"/>
                <path d="m54.007 135.83q1.0368-1.4441 2.7771-2.1846 1.7773-0.74055 4.0731-0.74055v5.332q-0.96272-0.074-1.296-0.074-2.4809 0-3.8879 1.407-1.4071 1.37-1.4071 4.1471v9.4051h-5.7763v-19.921h5.5171z" style="font-variant-caps:normal;font-variant-east-asian:normal;font-variant-ligatures:normal;font-variant-numeric:normal"/>
                <path d="m73.144 132.9q4.6285 0 7.1093 2.2217 2.4809 2.1846 2.4809 6.628v11.368h-5.4061v-2.4809q-1.6292 2.7771-6.0726 2.7771-2.2957 0-3.999-0.77758-1.6662-0.77759-2.5549-2.1476t-0.88867-3.1103q0-2.7771 2.0736-4.3693 2.1106-1.5922 6.4799-1.5922h4.5914q0-1.8884-1.1479-2.8882-1.1479-1.0368-3.4436-1.0368-1.5922 0-3.1474 0.51839-1.5181 0.48137-2.592 1.333l-2.0736-4.036q1.6292-1.1479 3.8879-1.7773 2.2957-0.62947 4.7025-0.62947zm-0.44434 16.625q1.4811 0 2.629-0.6665 1.1479-0.70353 1.6292-2.0365v-2.0365h-3.962q-3.5547 0-3.5547 2.3328 0 1.1108 0.85164 1.7773 0.88866 0.62947 2.4068 0.62947z" style="font-variant-caps:normal;font-variant-east-asian:normal;font-variant-ligatures:normal;font-variant-numeric:normal"/>
                <path d="m98.732 153.42q-3.1844 0-5.7393-1.296-2.5179-1.333-3.962-3.6658-1.4071-2.3328-1.4071-5.295 0-2.9622 1.4071-5.295 1.4441-2.3328 3.962-3.6287 2.5549-1.333 5.7393-1.333 3.1474 0 5.4801 1.333 2.3698 1.296 3.4436 3.7398l-4.4804 2.4068q-1.5552-2.74-4.4804-2.74-2.2587 0-3.7398 1.4811t-1.4811 4.036 1.4811 4.036 3.7398 1.4811q2.9622 0 4.4804-2.7401l4.4804 2.4438q-1.0738 2.3698-3.4436 3.7028-2.3328 1.333-5.4801 1.333z" style="font-variant-caps:normal;font-variant-east-asian:normal;font-variant-ligatures:normal;font-variant-numeric:normal"/>
                <path d="m111.8 125.65h5.7763v27.475h-5.7763z" style="font-variant-caps:normal;font-variant-east-asian:normal;font-variant-ligatures:normal;font-variant-numeric:normal"/>
                <path d="m143.37 143.23q0 0.11109-0.11108 1.5552h-15.07q0.4073 1.8514 1.9254 2.9252 1.5181 1.0738 3.7768 1.0738 1.5552 0 2.74-0.44433 1.2219-0.48136 2.2587-1.4811l3.0733 3.3325q-2.8141 3.2214-8.2202 3.2214-3.3695 0-5.9615-1.296-2.592-1.333-3.999-3.6658-1.4071-2.3328-1.4071-5.295 0-2.9252 1.37-5.258 1.4071-2.3698 3.8139-3.6658 2.4438-1.333 5.4431-1.333 2.9252 0 5.295 1.2589 2.3698 1.259 3.7028 3.6287 1.37 2.3328 1.37 5.4431zm-10.331-5.9615q-1.9625 0-3.2955 1.1108-1.333 1.1108-1.6292 3.0363h9.8124q-0.29622-1.8884-1.6292-2.9992-1.333-1.1479-3.2584-1.1479z" style="font-variant-caps:normal;font-variant-east-asian:normal;font-variant-ligatures:normal;font-variant-numeric:normal"/>
                <path d="m154.85 153.42q-2.4809 0-4.8506-0.59245-2.3698-0.62947-3.7768-1.5552l1.9254-4.1471q1.333 0.85164 3.2214 1.4071 1.8884 0.51839 3.7028 0.51839 3.6658 0 3.6658-1.8144 0-0.85164-0.99975-1.2219t-3.0733-0.62947q-2.4438-0.37028-4.036-0.85164t-2.7771-1.7033q-1.1479-1.2219-1.1479-3.4806 0-1.8884 1.0738-3.3325 1.1108-1.4811 3.1844-2.2957 2.1106-0.81461 4.9617-0.81461 2.1106 0 4.1841 0.48136 2.1106 0.44433 3.4806 1.2589l-1.9254 4.1101q-2.629-1.4811-5.7393-1.4811-1.8514 0-2.7771 0.51839-0.92569 0.51839-0.92569 1.333 0 0.92569 0.99975 1.296t3.1844 0.70353q2.4438 0.40731 3.999 0.88867 1.5552 0.44433 2.703 1.6662t1.1479 3.4066q0 1.8514-1.1108 3.2955-1.1108 1.4441-3.2584 2.2587-2.1106 0.77758-5.0358 0.77758z" style="font-variant-caps:normal;font-variant-east-asian:normal;font-variant-ligatures:normal;font-variant-numeric:normal"/>
            </g>
            <g fill="#fff">
                <circle cx="-71.577" cy="5.6111" r="9.0031"/>
                <circle cx="-62.499" cy="20.937" r="9.0031"/>
                <circle cx="-56.133" cy="37.913" r="9.0031"/>
                <circle cx="-50.946" cy="55.361" r="9.0031"/>
                <circle cx="-49.767" cy="73.399" r="9.0031"/>
                <circle cx="-54.011" cy="91.318" r="9.0031"/>
                <circle cx="-61.321" cy="107.82" r="9.0031"/>
                <circle cx="-69.455" cy="123.97" r="9.0031"/>
                <circle cx="-78.792" cy="139.31" r="9.0031"/>
                <circle cx="-83.46" cy="156.99" r="9.0031"/>
                <circle cx="-85.461" cy="174.66" r="9.0031"/>
                <circle cx="-80.125" cy="191.33" r="9.0031"/>
                <circle cx="-65.454" cy="201.52" r="9.0031"/>
            </g>
            <path transform="matrix(1.1464 .51276 -.51276 1.1464 -277.71 -235.57)" d="m459.63 59.646-6.4009-17.608-6.6584 17.513 5.1716-18.008-15.68 10.254 14.769-11.529-18.713-0.92082 18.725-0.64629-14.598-11.744 15.528 10.483-4.9069-18.082 6.4009 17.608 6.6584-17.513-5.1716 18.008 15.68-10.254-14.769 11.529 18.713 0.92082-18.725 0.64629 14.598 11.744-15.528-10.483z" fill="#f8e8a8"/>
        </g>
    </g>
</svg>
