<?xml version="1.0" encoding="UTF-8" standalone="no"?>
<svg
   xmlns:dc="http://purl.org/dc/elements/1.1/"
   xmlns:cc="http://creativecommons.org/ns#"
   xmlns:rdf="http://www.w3.org/1999/02/22-rdf-syntax-ns#"
   xmlns:svg="http://www.w3.org/2000/svg"
   xmlns="http://www.w3.org/2000/svg"
   xmlns:sodipodi="http://sodipodi.sourceforge.net/DTD/sodipodi-0.dtd"
   xmlns:inkscape="http://www.inkscape.org/namespaces/inkscape"
   sodipodi:docname="enlightment_highway.svg"
   width="1578.6299"
   height="811.03461"
   viewBox="0 0 417.67915 214.58625"
   version="1.1"
   id="svg8"
   inkscape:version="1.0rc1 (09960d6f05, 2020-04-09)">
  <defs
     id="defs2" />
  <sodipodi:namedview
     fit-margin-bottom="0"
     fit-margin-right="0"
     fit-margin-left="0"
     fit-margin-top="0"
     id="base"
     pagecolor="#91ffff"
     bordercolor="#666666"
     borderopacity="1.0"
     inkscape:pageopacity="0"
     inkscape:pageshadow="2"
     inkscape:zoom="0.35"
     inkscape:cx="624.55303"
     inkscape:cy="974.08872"
     inkscape:document-units="px"
     inkscape:current-layer="layer1"
     inkscape:document-rotation="0"
     showgrid="false"
     units="px"
     showborder="false" />
  <metadata
     id="metadata5">
    <rdf:RDF>
      <cc:Work
         rdf:about="">
        <dc:format>image/svg+xml</dc:format>
        <dc:type
           rdf:resource="http://purl.org/dc/dcmitype/StillImage" />
        <dc:title></dc:title>
      </cc:Work>
    </rdf:RDF>
  </metadata>
  <g
     transform="translate(206.57172,109.56097)"
     inkscape:label="Layer 1"
     inkscape:groupmode="layer"
     id="layer1">
    <g
       transform="translate(-738.9873,-106.04647)"
       id="g1704">
      <rect
         y="61.380314"
         x="736.04773"
         height="149.10788"
         width="213.98088"
         id="rect1386"
         style="fill:#f0f0f0;fill-opacity:1;stroke-width:0.488442;stroke-linejoin:round" />
      <path
         d="m 532.48168,-3.5145046 -0.0661,214.5862346 h 417.61305 l 0.0661,-214.5862346 z m 345.1569,65.3368936 c 0.96324,-0.0921 0.11396,1.11943 -4.15052,6.10182 -4.12485,4.81939 -27.34998,32.334731 -106.37837,126.050151 -7.11756,8.44021 -13.27812,15.73265 -13.69219,16.20573 l -0.7524,0.85989 h -11.1289 l 0.46302,-0.55398 c 2.72574,-3.27078 135.10948,-148.563541 135.42433,-148.629691 0.0798,-0.017 0.15074,-0.0269 0.21495,-0.0331 z m 3.97695,0.008 c 2.5494,-0.0189 5.96583,0.29845 5.96953,0.60357 0.003,0.16789 -1.96011,5.06835 -4.36562,10.88919 -2.40549,5.82083 -16.13509,39.158331 -30.50911,74.083331 l -26.13581,63.5 -34.20533,0.0661 c -27.36056,0.0537 -34.15771,7.9e-4 -33.99896,-0.26459 0.11004,-0.18245 24.90682,-30.74987 55.10742,-67.93177 30.20219,-37.17925 57.30346,-70.577601 60.22446,-74.215621 l 5.30834,-6.61459 1.57921,-0.091 c 0.31616,-0.0175 0.66107,-0.0221 1.02527,-0.0248 z m 9.85573,0.37206 c 2.33037,-0.0153 6.60533,0.24388 6.87097,0.50434 0.19447,0.19065 0.74472,6.1894 1.52963,16.56954 0.67675,8.949528 1.82145,23.951401 2.53834,33.337501 0.71688,9.38609 1.84012,24.14984 2.49703,32.80833 0.65688,8.65849 2.03131,26.67529 3.05091,40.0341 1.01968,13.36067 1.85208,24.58217 1.85208,24.93698 v 0.64492 h -67.52431 l 0.14885,-0.59531 c 0.0845,-0.32742 4.21032,-13.27071 9.1694,-28.7655 8.4635,-26.44404 8.98816,-28.19929 8.54102,-28.52473 -0.27205,-0.19908 -0.9666,-0.30901 -1.62883,-0.26458 l -1.16581,0.0744 -9.21914,26.32604 c -5.06968,14.47933 -9.64856,27.54577 -10.17825,29.03802 l -0.95912,2.71198 h -5.22552 l 0.56224,-1.52135 c 3.08663,-8.28305 56.02817,-146.978691 56.14987,-147.100391 0.70372,-0.70372 0.0114,1.62268 -3.38164,11.3358 -2.1418,6.13119 -3.83063,11.309346 -3.7539,11.509378 0.17814,0.46424 0.53983,0.46537 0.92604,0 0.16682,-0.200972 1.9046,-5.404648 3.86133,-11.559118 1.95667,-6.15421 3.7002,-11.27548 3.87773,-11.38528 0.12441,-0.0769 0.6867,-0.11067 1.46349,-0.11576 z m 8.35925,0.41341 c 0.32462,-0.0305 0.72567,0.0576 0.84338,0.24804 0.17487,0.28292 25.273,146.954881 25.27591,147.711591 0.003,0.42592 -0.43285,0.46302 -5.40755,0.46302 h -5.40755 l -0.15711,-1.12448 c -0.0848,-0.61847 -1.2218,-11.24479 -2.53006,-23.61406 -1.30825,-12.36928 -2.67361,-25.22803 -3.0345,-28.575 -0.36084,-3.34698 -2.62782,-24.59964 -5.03529,-47.22813 -2.40757,-22.628493 -4.53707,-42.571461 -4.72942,-44.317711 -0.1923,-1.74625 -0.30031,-3.26443 -0.2398,-3.37343 0.0599,-0.10797 0.22694,-0.17188 0.42167,-0.19017 z m -18.48776,23.696608 c -0.40746,0.007 -0.99417,0.53557 -0.79375,0.8599 0.2718,0.43976 0.93858,0.37695 1.12448,-0.10749 0.0875,-0.22806 0.0453,-0.52517 -0.0909,-0.66146 -0.0626,-0.0627 -0.14576,-0.0926 -0.23979,-0.091 z m -0.76893,2.06706 c -0.27231,0.0207 -0.56373,0.24664 -0.62013,0.64492 -0.0727,0.51297 0.0161,0.60182 0.52916,0.52917 0.41101,-0.0582 0.62013,-0.26734 0.62013,-0.62013 0,-0.394 -0.25685,-0.57473 -0.52916,-0.55399 z m -0.75243,2.27377 c -0.65312,0 -1.10667,0.620112 -0.81026,1.099662 0.297,0.48057 1.29268,0.11598 1.38079,-0.50434 0.068,-0.479092 -0.0461,-0.595322 -0.57053,-0.595322 z m -0.802,2.381252 c -0.42783,0 -0.71864,0.1883 -0.82682,0.52917 -0.22702,0.7153 0.0656,1.10659 0.75242,1.00872 0.39989,-0.057 0.59449,-0.30014 0.65318,-0.81028 0.0716,-0.62199 -0.0135,-0.72761 -0.57878,-0.72761 z m -0.97565,2.92682 c -0.30372,0.0237 -0.64577,0.20323 -0.88469,0.58706 -0.22672,0.36412 -0.19963,0.52356 0.10747,0.71935 0.62058,0.39561 1.01577,0.31541 1.33946,-0.2894 0.34999,-0.65397 -0.056,-1.05648 -0.56224,-1.01701 z m -0.84336,2.67071 c -0.0467,10e-4 -0.0978,0.002 -0.14883,0.008 -0.82121,0.0981 -1.4151,1.446221 -0.81029,1.835551 0.56111,0.36118 1.10975,0.1555 1.45521,-0.537421 0.40616,-0.81465 0.20426,-1.32588 -0.49609,-1.30638 z m -1.4056,3.431381 c -0.51528,-0.0185 -0.65334,0.13727 -0.87643,0.77721 -0.16079,0.46122 -0.22844,0.94607 -0.14883,1.07487 0.21548,0.34867 1.33411,0.28038 1.64536,-0.0992 0.14915,-0.1819 0.31324,-0.62838 0.36381,-0.99218 0.0795,-0.57142 -0.028,-0.67451 -0.74412,-0.74414 -0.0904,-0.009 -0.16618,-0.0139 -0.23979,-0.0165 z m -1.02526,3.67109 c -0.79933,0 -0.9389,0.10492 -1.20716,0.91779 -0.37246,1.12847 -0.19108,1.46346 0.78549,1.46346 0.60585,0 0.80786,-0.16399 1.04177,-0.83507 0.46543,-1.33517 0.37582,-1.54618 -0.6201,-1.54618 z m -1.35599,4.01003 c -0.4799,0.012 -0.92009,0.38536 -1.26505,1.0914 -0.63974,1.30951 -0.42966,1.8356 0.68627,1.72805 0.75176,-0.0724 0.90578,-0.22389 1.24852,-1.21544 0.34748,-1.00518 0.34748,-1.17271 0,-1.39732 -0.22688,-0.14666 -0.45159,-0.21216 -0.66974,-0.20671 z m -1.695,4.85351 c -0.85606,0 -0.95136,0.0888 -1.39732,1.28985 -0.36515,0.98348 -0.40566,1.37409 -0.17362,1.65364 0.49125,0.5919 1.49828,0.43593 1.98438,-0.30591 0.24185,-0.36917 0.45516,-1.11331 0.47127,-1.65364 0.0284,-0.95031 0.004,-0.98394 -0.88471,-0.98394 z m -1.74458,5.43216 c -0.47575,0.0213 -0.96004,0.13394 -1.10795,0.32248 -0.39679,0.50575 -1.06177,2.66964 -0.93429,3.04271 0.0637,0.18664 0.55777,0.33073 1.12448,0.33073 0.85267,0 1.04066,-0.10979 1.27328,-0.72761 0.59965,-1.5925 0.83243,-2.52195 0.69453,-2.74505 -0.10941,-0.17703 -0.57431,-0.2445 -1.05005,-0.22324 z m -2.28203,6.18464 c -0.38474,-0.009 -0.73888,0.0502 -0.88469,0.20671 -0.46736,0.50159 -1.48524,3.72639 -1.24852,3.95234 0.10935,0.10431 0.4961,0.24066 0.8599,0.30591 0.3638,0.0653 0.72099,0.13124 0.79375,0.14883 0.0728,0.0176 0.28334,-0.0626 0.47127,-0.1819 0.31301,-0.19857 1.37608,-3.20596 1.38081,-3.91081 0.003,-0.29437 -0.73131,-0.50538 -1.37252,-0.52091 z m -2.94349,7.31732 c -0.10197,0.0102 -0.19656,0.0286 -0.27287,0.0579 -0.41415,0.15894 -2.01313,4.4032 -1.83552,4.86993 0.0661,0.1736 0.49027,0.3639 0.95083,0.42169 0.46056,0.0578 0.86024,0.12554 0.88469,0.14883 0.0243,0.0233 0.23445,-0.0281 0.46302,-0.11576 0.38076,-0.14611 1.74461,-3.84995 1.74461,-4.73763 0,-0.34591 -1.22092,-0.71596 -1.93476,-0.64492 z m -3.56368,8.6569 -0.57052,1.54617 c -0.31459,0.85378 -0.75864,2.05147 -0.9839,2.65404 -0.54571,1.4597 -0.39881,2.03586 0.57049,2.24895 1.70476,0.37481 1.77636,0.29938 2.84427,-2.80299 0.61206,-1.77803 0.90318,-2.99112 0.75242,-3.14193 -0.13496,-0.13496 -0.77975,-0.29874 -1.43041,-0.37206 l -1.18235,-0.13229 z"
         fill="#ff0000"
         fill-rule="evenodd"
         style="color:#000000;fill:#303030;fill-opacity:1;stroke-width:0.264583"
         id="path1388"
         inkscape:connector-curvature="0"
         sodipodi:nodetypes="cccccccscccccccccscccccccccccssssssccccccccccccsssssscccscsccsscssccssssssssssssssssssssssssssccssccssssscsssssssssssssssssssssssssssscssssccccsssscssssccssssccc" />
      <path
         inkscape:connector-curvature="0"
         d="m 701.31493,73.198507 -8.73408,24.217213 q -0.49153,1.34226 -1.22882,2.11736 -0.71839,0.794 -1.79597,1.13429 -1.05868,0.34029 -2.62779,0.34029 h -1.1532 v -5.02871 h 1.1532 q 0.83182,0 1.38006,-0.378099 0.56715,-0.359193 0.85073,-1.19101 l 7.2784,-21.211334 z m -18.12983,0 h 4.87747 l 6.59782,17.052249 -3.27055,4.17799 z m -7.2406,7.183874 q 0,-1.361155 -0.90743,-2.098447 -0.90744,-0.737293 -2.57107,-0.737293 -1.09649,0 -2.17407,0.359194 -1.07758,0.359194 -1.9094,1.001962 l -3.21384,-3.157124 q 1.17211,-1.34225 3.10041,-2.079543 1.9283,-0.756197 4.27252,-0.756197 2.57107,0 4.38594,0.869627 1.81487,0.850722 2.76012,2.495451 0.96415,1.625824 0.96415,3.932226 V 92.821826 H 675.9445 Z M 670.48098,93.1054 q -3.15712,0 -4.72623,-1.493489 -1.55021,-1.512395 -1.55021,-4.574994 0,-2.911359 1.73926,-4.367039 1.75815,-1.45568 5.25557,-1.45568 h 4.91528 l 0.26467,3.951131 h -5.16105 q -1.1721,0 -1.75816,0.472623 -0.58605,0.453719 -0.58605,1.398965 0,0.964152 0.73729,1.436775 0.73729,0.453718 2.23078,0.453718 2.07955,0 3.08151,-0.472623 1.02086,-0.472623 1.02086,-1.474585 l 0.39701,2.854645 q -0.11343,1.058676 -0.98306,1.795969 -0.85072,0.737292 -2.15516,1.115391 -1.28554,0.359193 -2.72231,0.359193 z M 633.50293,73.198507 h 4.972 l 3.47851,12.118061 4.14018,-12.118061 h 3.0626 l 4.14018,12.118061 3.4785,-12.118061 h 4.972 l -6.04958,19.623319 h -3.8566 l -4.2158,-12.798638 -4.2158,12.798638 h -3.85661 z m -19.39646,-7.864451 h 5.17995 v 27.48777 h -5.17995 z m 11.34296,15.596568 q 0,-1.436775 -0.83182,-2.230782 -0.81291,-0.794007 -2.3253,-0.794007 -1.43678,0 -2.23078,0.812912 -0.77511,0.794007 -0.77511,2.249687 l -0.397,-4.348134 q 0.88853,-1.852683 2.11735,-2.779025 1.24773,-0.926342 3.11932,-0.926342 3.1004,0 4.80185,2.098448 1.70144,2.079542 1.70144,5.898338 v 11.910107 h -5.17995 z m -25.25699,19.869086 q -2.34421,0 -4.19689,-0.83182 -1.83378,-0.81291 -2.85465,-2.3064 v 0 l 3.47851,-3.194935 v 0 q 0.66167,0.718388 1.58802,1.096487 0.92634,0.397003 1.9283,0.397003 1.62582,0 2.64669,-0.888532 1.03977,-0.888531 1.03977,-2.457641 V 73.198507 h 5.17995 v 19.037267 q 0,2.703405 -1.03977,4.631706 -1.02087,1.9283 -3.00588,2.93027 -1.96612,1.00196 -4.76405,1.00196 z M 599.2661,93.1054 q -2.07954,0 -3.57303,-1.001961 -1.47459,-1.001961 -2.24969,-2.892455 -0.7751,-1.909398 -0.7751,-4.593898 v -3.138219 q 0,-2.703405 0.7751,-4.631708 0.7751,-1.928303 2.24969,-2.930264 1.49349,-1.001962 3.57303,-1.001962 1.56911,0 2.85465,0.945247 1.30444,0.926341 2.09844,2.64669 l -0.397,4.348135 q 0,-1.001962 -0.34029,-1.701444 -0.34029,-0.699483 -1.00196,-1.058676 -0.64277,-0.378099 -1.56911,-0.378099 -1.45568,0 -2.26859,1.001961 -0.79401,0.983057 -0.79401,2.779025 v 3.119314 q 0,1.758159 0.79401,2.72231 0.81291,0.964152 2.26859,0.964152 0.92634,0 1.56911,-0.359194 0.66167,-0.359194 1.00196,-1.039771 0.34029,-0.680578 0.34029,-1.644729 l 0.26467,4.480469 q -0.60496,1.606919 -1.85268,2.495451 -1.24773,0.869626 -2.96808,0.869626 z M 583.19691,65.334056 h 5.17995 v 5.179951 h -5.17995 z m 0,7.864451 h 5.17995 v 19.623319 h -5.17995 z m -10.60567,-7.864451 h 5.17995 v 27.48777 h -5.17995 z m -15.04832,0 h 5.17995 v 27.48777 h -5.17995 z m 2.40092,11.361864 h 16.01248 v 4.990902 H 559.94384 Z M 801.52997,50.247944 q -2.57107,0 -3.78099,-1.304441 -1.19101,-1.323345 -1.19101,-3.894416 V 24.82081 h 5.17995 v 18.942742 q 0,0.718387 0.28358,1.115391 0.28357,0.378099 0.83181,0.378099 h 1.28554 v 4.990902 z M 794.53514,30.5301 h 9.60371 v 4.423754 h -9.60371 z m -20.11484,0 h 5.17995 v 19.623319 h -5.17995 z m 11.34295,7.732117 q 0,-1.436775 -0.83181,-2.230782 -0.81291,-0.794007 -2.32531,-0.794007 -1.43677,0 -2.23078,0.812912 -0.7751,0.794007 -0.7751,2.249687 l -0.39701,-4.348135 q 0.88854,-1.852683 2.11736,-2.779025 1.24772,-0.926341 3.11931,-0.926341 3.10041,0 4.80185,2.098447 1.70145,2.079543 1.70145,5.898339 v 11.910107 h -5.17996 z m -23.72568,12.174776 q -2.83574,0 -4.85857,-1.020866 -2.00393,-1.039772 -3.0626,-3.005885 -1.05868,-1.985017 -1.05868,-4.764042 v -2.211877 q 0,-2.91136 1.00196,-4.971997 1.02087,-2.060638 2.94917,-3.138219 1.94721,-1.077581 4.68843,-1.077581 2.57107,0 4.40485,1.285535 1.83377,1.285535 2.77902,3.743177 0.96415,2.438736 0.96415,5.898338 v 1.285536 h -13.4225 v -3.497413 h 8.69627 l -0.0567,-0.453718 q -0.20795,-1.701444 -1.07758,-2.627786 -0.85072,-0.926341 -2.28749,-0.926341 -1.87159,0 -2.91136,1.115391 -1.02087,1.115391 -1.02087,3.157123 v 2.495451 q 0,2.003923 1.11539,3.100409 1.1343,1.096486 3.15713,1.096486 1.03977,0 2.06063,-0.359193 1.02087,-0.378099 1.85269,-1.058677 v 0 l 3.38398,3.005885 v 0 q -1.5313,1.398964 -3.4407,2.174067 -1.9094,0.756197 -3.8566,0.756197 z m -18.7348,-11.607628 q 0,-1.720349 -0.83182,-2.646691 -0.81291,-0.945246 -2.3253,-0.945246 -1.49349,0 -2.3064,0.907436 -0.79401,0.888532 -0.79401,2.533261 l -0.96415,-4.537183 q 0.92634,-1.871589 2.40092,-2.87355 1.49349,-1.020866 3.30837,-1.020866 2.11735,0 3.61084,1.001961 1.51239,1.001962 2.28749,2.930265 0.79401,1.928303 0.79401,4.631708 v 11.342959 h -5.17995 z M 720.4278,30.5301 h 5.17995 v 19.623319 h -5.17995 z m 11.43749,8.299265 q 0,-1.720349 -0.85073,-2.646691 -0.85072,-0.945246 -2.40092,-0.945246 -1.43678,0 -2.23078,0.812912 -0.77511,0.794007 -0.77511,2.249687 l -0.397,-4.348135 q 0.86963,-1.814873 2.17407,-2.76012 1.30444,-0.945246 3.0626,-0.945246 2.07954,0 3.55412,1.001961 1.49349,1.001962 2.2686,2.930265 0.7751,1.928303 0.7751,4.631708 v 11.342959 h -5.17995 z M 698.80056,30.5301 h 5.17995 v 19.623319 h -5.17995 z m 11.34296,7.732117 q 0,-1.436775 -0.83182,-2.230782 -0.81291,-0.794007 -2.3253,-0.794007 -1.43678,0 -2.23079,0.812912 -0.7751,0.794007 -0.7751,2.249687 l -0.397,-4.348135 q 0.88853,-1.852683 2.11735,-2.779025 1.24773,-0.926341 3.11931,-0.926341 3.10041,0 4.80186,2.098447 1.70144,2.079543 1.70144,5.898339 v 11.910107 h -5.17995 z m -23.72568,12.174776 q -2.83574,0 -4.85857,-1.020866 -2.00392,-1.039772 -3.0626,-3.005885 -1.05868,-1.985017 -1.05868,-4.764042 v -2.211877 q 0,-2.91136 1.00197,-4.971997 1.02086,-2.060638 2.94917,-3.138219 1.9472,-1.077581 4.68842,-1.077581 2.57107,0 4.40485,1.285535 1.83378,1.285535 2.77902,3.743177 0.96415,2.438736 0.96415,5.898338 v 1.285536 h -13.4225 v -3.497413 h 8.69627 l -0.0567,-0.453718 q -0.20796,-1.701444 -1.07759,-2.627786 -0.85072,-0.926341 -2.28749,-0.926341 -1.87159,0 -2.91136,1.115391 -1.02087,1.115391 -1.02087,3.157123 v 2.495451 q 0,2.003923 1.11539,3.100409 1.1343,1.096486 3.15713,1.096486 1.03977,0 2.06063,-0.359193 1.02087,-0.378099 1.85269,-1.058677 v 0 l 3.38398,3.005885 v 0 q -1.5313,1.398964 -3.4407,2.174067 -1.9094,0.756197 -3.8566,0.756197 z m -15.55876,-0.189049 q -2.57107,0 -3.78099,-1.304441 -1.19101,-1.323345 -1.19101,-3.894416 V 24.82081 h 5.17995 v 18.942742 q 0,0.718387 0.28358,1.115391 0.28357,0.378099 0.83181,0.378099 h 1.28554 v 4.990902 z M 663.86425,30.5301 h 9.60371 v 4.423754 h -9.60371 z M 643.7494,22.665648 h 5.17996 v 27.487771 h -5.17996 z m 11.34296,15.596569 q 0,-1.436775 -0.83181,-2.230782 -0.81291,-0.794007 -2.32531,-0.794007 -1.43677,0 -2.23078,0.812912 -0.7751,0.794007 -0.7751,2.249687 l -0.39701,-4.348135 q 0.88853,-1.852683 2.11736,-2.779025 1.24772,-0.926341 3.11931,-0.926341 3.10041,0 4.80185,2.098447 1.70145,2.079543 1.70145,5.898339 v 11.910107 h -5.17996 z M 629.83538,58.1313 q -2.34421,0 -4.1969,-0.831817 -1.83377,-0.812912 -2.85464,-2.306401 v 0 l 3.47851,-3.194934 v 0 q 0.66167,0.718387 1.58801,1.096486 0.92634,0.397004 1.9283,0.397004 1.62583,0 2.6467,-0.888532 1.03977,-0.888532 1.03977,-2.457641 V 30.5301 h 5.17995 v 19.037266 q 0,2.703405 -1.03977,4.631708 -1.02087,1.928303 -3.00589,2.930265 -1.96611,1.001961 -4.76404,1.001961 z m -0.92634,-7.694307 q -2.07954,0 -3.57303,-1.001961 -1.47459,-1.001962 -2.24969,-2.892455 -0.7751,-1.909398 -0.7751,-4.593898 V 38.81046 q 0,-2.703405 0.7751,-4.631708 0.7751,-1.928303 2.24969,-2.930265 1.49349,-1.001961 3.57303,-1.001961 1.56911,0 2.85464,0.945246 1.30444,0.926342 2.09845,2.646691 l -0.397,4.348134 q 0,-1.001961 -0.34029,-1.701444 -0.34029,-0.699482 -1.00196,-1.058676 -0.64277,-0.378099 -1.56911,-0.378099 -1.45568,0 -2.26859,1.001962 -0.79401,0.983056 -0.79401,2.779025 v 3.119314 q 0,1.758158 0.79401,2.72231 0.81291,0.964151 2.26859,0.964151 0.92634,0 1.56911,-0.359193 0.66167,-0.359194 1.00196,-1.039772 0.34029,-0.680577 0.34029,-1.644729 l 0.26467,4.480469 q -0.60496,1.606919 -1.85269,2.495451 -1.24772,0.869627 -2.96807,0.869627 z m -16.0692,-27.771345 h 5.17995 v 5.179951 h -5.17995 z m 0,7.864452 h 5.17995 v 19.623319 h -5.17995 z m -5.72819,13.138927 q 0,0.718388 0.397,1.115391 0.41591,0.378099 1.1721,0.378099 h 0.86963 v 4.990902 h -2.64669 q -2.36312,0 -3.66756,-1.361155 -1.30444,-1.361155 -1.30444,-3.837701 V 22.665648 h 5.17996 z M 580.30445,30.5301 h 5.17996 v 19.623319 h -5.17996 z m 11.34296,7.732117 q 0,-1.436775 -0.83181,-2.230782 -0.81292,-0.794007 -2.32531,-0.794007 -1.43677,0 -2.23078,0.812912 -0.7751,0.794007 -0.7751,2.249687 l -0.39701,-4.348135 q 0.88853,-1.852683 2.11736,-2.779025 1.24772,-0.926341 3.11931,-0.926341 3.10041,0 4.80185,2.098447 1.70145,2.079543 1.70145,5.898339 v 11.910107 h -5.17996 z M 557.54292,22.665648 h 5.17995 v 27.487771 h -5.17995 z m 1.87158,22.496869 h 16.54182 v 4.990902 H 559.4145 Z m 0,-11.15391 h 14.46228 v 4.990902 H 559.4145 Z m 0,-11.342959 h 16.54182 V 27.65655 H 559.4145 Z"
         style="font-style:normal;font-variant:normal;font-weight:normal;font-stretch:normal;font-size:38.7173px;line-height:1.25;font-family:Bahnschrift;-inkscape-font-specification:'Bahnschrift, @wght=700,wdth=100.0';font-variant-ligatures:normal;font-variant-caps:normal;font-variant-numeric:normal;font-variant-east-asian:normal;font-variation-settings:'wdth' 100, 'wght' 700;letter-spacing:0px;fill:#f0f0f0;fill-opacity:1;stroke-width:0.96794"
         id="path1471" />
      <path
         d="m 459.63105,59.646191 -6.40086,-17.608404 -6.65842,17.512639 5.17155,-18.007833 -15.68044,10.254306 14.76861,-11.528882 -18.71307,-0.920824 18.72457,-0.64629 -14.59795,-11.744229 15.52837,10.483162 -4.9069,-18.081739 6.40086,17.608404 6.65842,-17.51264 -5.17155,18.007834 15.68044,-10.254306 -14.76861,11.528882 18.71307,0.920823 -18.72457,0.646291 14.59795,11.744229 -15.52837,-10.483162 z"
         sodipodi:type="star"
         style="fill:#ffffff;fill-opacity:1;stroke:none;stroke-width:0.0997229;stroke-linejoin:round;stroke-miterlimit:4;stroke-dasharray:none"
         id="path1404"
         sodipodi:sides="10"
         sodipodi:cx="453.24878"
         sodipodi:cy="39.502144"
         sodipodi:r1="21.130926"
         sodipodi:r2="2.5357113"
         sodipodi:arg1="1.26397"
         sodipodi:arg2="1.5781293"
         inkscape:flatsided="false"
         inkscape:rounded="0"
         inkscape:randomized="0"
         transform="matrix(1.1464291,0.51276185,-0.51276185,1.1464291,392.15163,-246.43654)" />
      <g
         id="g1692">
        <path
           inkscape:connector-curvature="0"
           id="path1529"
           style="font-style:italic;font-variant:normal;font-weight:normal;font-stretch:normal;font-size:21.4012px;line-height:1.25;font-family:'Monotype Corsiva';-inkscape-font-specification:'Monotype Corsiva, Italic';font-variant-ligatures:normal;font-variant-caps:normal;font-variant-numeric:normal;font-variant-east-asian:normal;letter-spacing:1.41023px;fill:#f0f0f0;fill-opacity:1;stroke-width:0.535031"
           d="m 725.07316,168.14181 1.66152,-0.63744 -0.75239,2.92595 h 2.16311 l -0.16719,0.74194 h -2.16311 l -0.91959,3.50068 q -0.42844,1.57792 -0.42844,2.19446 0,0.28214 0.11495,0.40754 0.1254,0.1254 0.33439,0.1254 0.32395,0 0.99273,-0.38664 0.87779,-0.51204 1.67197,-1.15993 l 0.3971,0.48069 q -2.28851,1.72422 -3.0618,2.11086 -0.77328,0.38664 -1.24352,0.38664 -0.38665,0 -0.61654,-0.28214 -0.21945,-0.28215 -0.21945,-0.91959 0,-0.75238 0.39709,-2.29895 l 1.07633,-4.15902 h -1.69286 l 0.18809,-0.74194 h 1.68242 z m -5.34982,8.1822 0.2717,0.38664 q -0.96138,1.06588 -1.97501,1.69287 -0.68969,0.42844 -1.13903,0.42844 -0.36575,0 -0.59564,-0.29259 -0.21945,-0.2926 -0.21945,-0.90914 0,-0.41799 0.1672,-1.21217 0.17765,-0.80464 0.98228,-3.43799 0.35529,-1.29577 0.35529,-1.51522 0,-0.35529 -0.35529,-0.35529 -0.43889,0 -1.09723,0.43889 -0.91958,0.60609 -1.63017,1.54657 -0.44934,0.60609 -0.72103,1.79737 l -0.83599,3.63653 h -1.55702 q 0.50159,-1.82872 0.77329,-2.98865 l 1.53612,-6.70877 q 0.41799,-1.84962 1.09723,-2.84235 0.68968,-1.00318 1.78691,-1.59882 1.10768,-0.59564 2.18401,-0.59564 0.44934,0 0.71059,0.21945 0.26124,0.21945 0.26124,0.55384 0,0.28214 -0.26124,0.50159 -0.2508,0.209 -0.68969,0.209 -0.25079,0 -0.64789,-0.0523 -0.89868,-0.1254 -1.24352,-0.1254 -0.48069,0 -0.78374,0.38664 -0.30304,0.38664 -0.62699,1.81827 l -1.17037,5.1622 q 1.24352,-1.30622 2.7065,-2.20491 0.85688,-0.53294 1.37937,-0.53294 0.40754,0 0.63744,0.2508 0.22989,0.24034 0.22989,0.67924 0,0.35529 -0.0836,0.71058 -0.13584,0.61654 -0.63743,2.23626 -0.67924,2.23626 -0.80464,2.77965 -0.11495,0.54339 -0.11495,0.97183 0,0.1672 0.0522,0.2508 0.0627,0.0836 0.17765,0.0836 0.25079,0 0.94048,-0.59564 0.38664,-0.32394 0.94048,-0.77328 z m -11.33754,-6.64608 0.84644,-0.18809 q -0.76284,2.44525 -1.40027,4.90096 -0.4598,1.75556 -0.63744,2.92594 -0.0941,0.58519 -0.1045,1.48387 -0.0209,1.50477 -0.33439,2.42436 -0.4389,1.28532 -1.64062,2.06906 -1.19128,0.78373 -2.8319,0.78373 -1.41072,0 -2.22581,-0.66878 -0.80463,-0.65834 -0.80463,-1.51523 0,-0.84643 0.64788,-1.57792 0.48069,-0.55384 2.00637,-1.33757 0.77328,-0.40754 1.45252,-0.83598 -0.77329,0.39709 -1.20173,0.39709 -0.38664,0 -0.68969,-0.3553 -0.29259,-0.36574 -0.29259,-0.96138 0,-1.92276 1.13903,-3.81418 1.14948,-1.90186 2.75875,-2.85279 0.99273,-0.58519 2.48705,-0.58519 0.29259,0 0.72104,0.0209 z m -1.17037,1.54657 q -0.50159,-0.094 -0.88824,-0.094 -0.99273,0 -1.70331,0.52249 -0.71059,0.52249 -1.21218,1.75556 -0.70014,1.74512 -0.70014,2.9364 0,0.49114 0.2717,0.82553 0.28214,0.3344 0.62698,0.3344 0.418,0 1.03453,-0.3971 0.61654,-0.40754 1.00319,-1.01363 0.39709,-0.60609 0.80463,-2.08996 z m -1.42118,5.69515 q -0.71058,0.63744 -2.73785,2.03771 -1.78691,1.21218 -2.19445,1.74512 -0.40755,0.54339 -0.40755,1.14948 0,0.59563 0.52249,1.06588 0.53294,0.48069 1.28533,0.48069 0.71059,0 1.37937,-0.3553 0.66879,-0.34484 1.15993,-1.01363 0.50159,-0.65834 0.68969,-1.49432 0.1881,-0.83598 0.19855,-2.21536 0.0104,-0.30304 0.10449,-1.40027 z m -6.54108,-11.66198 q 0.32394,0 0.53294,0.21944 0.20899,0.209 0.20899,0.54339 0,0.45979 -0.32394,0.81509 -0.3135,0.34484 -0.71059,0.34484 -0.31349,0 -0.52249,-0.21945 -0.20899,-0.21944 -0.20899,-0.57473 0,-0.47025 0.30304,-0.79419 0.30304,-0.33439 0.72104,-0.33439 z m -4.11723,6.91777 -0.45979,-0.3553 q 1.04498,-1.14948 1.90187,-1.63017 0.86733,-0.49114 1.47342,-0.49114 0.33439,0 0.51204,0.1463 0.17765,0.1463 0.17765,0.39709 0,0.30305 -0.67924,2.57065 -1.10768,3.70969 -1.10768,4.47252 0,0.1463 0.0732,0.2508 0.0731,0.094 0.15675,0.094 0.33439,0 1.71376,-1.29577 l 0.40755,0.39709 q -1.43163,1.34803 -2.08997,1.72422 -0.65833,0.37619 -1.07633,0.37619 -0.36574,0 -0.58518,-0.22989 -0.209,-0.2299 -0.209,-0.63744 0,-1.30623 1.56747,-6.38483 0.0731,-0.24035 0.0731,-0.42844 0,-0.209 -0.1881,-0.209 -0.20899,0 -0.48069,0.1672 -0.26124,0.16719 -1.18083,1.06588 z m -2.5388,3.84552 0.35529,0.3762 q -0.81508,0.91958 -1.93321,1.68242 -1.10768,0.75238 -1.82872,0.75238 -0.32394,0 -0.53294,-0.25079 -0.20899,-0.24035 -0.20899,-0.66879 0,-0.83598 0.64789,-3.46934 l 1.12857,-4.58746 q 0.61654,-2.48705 1.03453,-3.33349 0.64789,-1.28532 1.82872,-1.99591 1.19128,-0.71059 2.50795,-0.71059 0.44935,0 0.70014,0.21945 0.26125,0.209 0.26125,0.51204 0,0.33439 -0.2508,0.55384 -0.2508,0.209 -0.73149,0.209 -0.31349,0 -0.88823,-0.1045 -0.50159,-0.0836 -0.93003,-0.0836 -0.42844,0 -0.64789,0.17765 -0.30304,0.25079 -0.55384,1.05543 -0.24035,0.80463 -0.79418,3.17674 l -1.03454,4.37846 q -0.77328,3.29169 -0.77328,3.43799 0,0.33439 0.24034,0.33439 0.2299,0 0.66879,-0.27169 0.86734,-0.54339 1.73467,-1.38983 z m -18.39068,-5.59064 h 2.49751 q 0.61654,-2.61245 1.41072,-3.88733 0.79419,-1.27487 2.06906,-2.00636 1.27488,-0.74194 2.40346,-0.74194 0.63744,0 0.96138,0.2508 0.32394,0.25079 0.32394,0.59564 0,0.31349 -0.21944,0.52249 -0.21945,0.20899 -0.57474,0.20899 -0.36574,0 -1.37938,-0.21944 -0.50159,-0.1045 -0.78373,-0.1045 -0.68969,0 -1.24353,0.85688 -0.55384,0.84644 -0.88823,2.29896 l -0.52249,2.22581 h 2.75875 l -0.1672,0.74194 h -2.7901 l -1.65107,6.66697 q -0.76283,3.04089 -2.44525,4.60836 -1.67197,1.56748 -3.63653,1.56748 -0.65834,0 -0.99273,-0.26125 -0.34485,-0.2508 -0.34485,-0.62699 0,-0.32394 0.24035,-0.52249 0.22989,-0.18809 0.66879,-0.18809 0.21944,0 0.64788,0.0522 0.73149,0.0941 1.40028,0.0941 1.03453,0 1.50477,-0.49114 0.47024,-0.48069 0.94048,-2.3721 l 2.12131,-8.52704 h -2.4975 z m -5.15125,-0.67924 q 1.02408,0 1.70332,0.81509 0.67923,0.81508 0.67923,2.2676 0,2.31986 -1.63016,4.16948 -1.63017,1.83916 -3.44844,1.83916 -1.11813,0 -1.80782,-0.73148 -0.67923,-0.73149 -0.67923,-1.99592 0,-2.19446 1.25397,-4.05452 1.57792,-2.30941 3.92913,-2.30941 z m -0.88823,0.78374 q -0.88824,0 -1.72422,1.27487 -0.82554,1.26443 -0.82554,3.50069 0,1.35847 0.51204,2.14221 0.3762,0.57474 1.00319,0.57474 0.87778,0 1.59882,-1.08678 0.91958,-1.41073 0.91958,-3.50069 0,-1.56747 -0.42844,-2.23625 -0.418,-0.66879 -1.05543,-0.66879 z m -13.19712,5.84144 0.29259,0.39709 q -1.40027,1.18083 -2.07951,1.56747 -0.94048,0.53294 -1.48387,0.53294 -0.2508,0 -0.40755,-0.1463 -0.15674,-0.13584 -0.15674,-0.31349 0,-0.17765 0.11494,-0.58519 l 0.36575,-1.27488 q -1.25398,1.34803 -2.08996,1.82872 -0.83599,0.48069 -1.50477,0.48069 -0.55384,0 -0.93004,-0.48069 -0.37619,-0.49114 -0.37619,-1.43162 0,-1.48387 1.01363,-3.40664 1.02408,-1.93321 2.26761,-2.8528 1.25397,-0.93003 2.28851,-0.93003 0.22989,0 0.68968,0.0731 0.49114,-2.03771 0.94048,-2.96774 0.44935,-0.94049 1.15993,-1.61972 0.71059,-0.67924 1.61972,-1.04498 0.91959,-0.3762 1.71377,-0.3762 0.41799,0 0.66879,0.21945 0.25079,0.21944 0.25079,0.55384 0,0.32394 -0.22989,0.53294 -0.2299,0.19854 -0.62699,0.19854 -0.26125,0 -0.97183,-0.10449 -0.71059,-0.1045 -0.97183,-0.1045 -0.36575,0 -0.64789,0.22989 -0.2717,0.21945 -0.52249,0.96139 -0.1672,0.47024 -0.76284,2.99909 l -1.48387,6.31168 q -0.26125,1.11813 -0.26125,1.48387 0,0.3971 0.30305,0.3971 0.1881,0 0.43889,-0.13585 0.35529,-0.19855 1.37938,-0.99273 z m -2.21536,-5.3921 q -0.83599,-0.1881 -1.18083,-0.1881 -0.70014,0 -1.36893,0.55384 -0.66878,0.54339 -1.29577,2.12131 -0.61654,1.57792 -0.61654,2.7483 0,0.53294 0.28214,0.87778 0.2926,0.3344 0.65834,0.3344 0.43889,0 1.00318,-0.38664 0.80464,-0.57474 1.27488,-1.40028 0.28214,-0.52249 0.76284,-2.5602 z m -9.03859,4.93231 0.34484,0.45979 q -2.5602,2.4348 -4.38891,2.4348 -0.74194,0 -1.13903,-0.50159 -0.38664,-0.50159 -0.38664,-1.60927 0,-2.23626 1.35847,-4.45161 1.52567,-2.51841 3.64698,-2.51841 0.74194,0 1.12858,0.3762 0.39709,0.36574 0.39709,1.01363 0,0.67923 -0.47024,1.33757 -0.47024,0.65834 -1.68242,1.36893 -0.60609,0.34484 -2.59155,1.24352 -0.0941,0.56429 -0.0941,1.07633 0,0.74194 0.2299,1.03453 0.24034,0.2926 0.68969,0.2926 0.42844,0 0.94048,-0.24035 0.68969,-0.32394 2.01681,-1.31667 z m -3.65743,-1.51522 q 1.68242,-0.75239 2.52885,-1.61972 0.57474,-0.60609 0.57474,-1.20173 0,-0.44934 -0.24034,-0.71059 -0.2299,-0.27169 -0.60609,-0.27169 -0.38665,0 -0.75239,0.29259 -0.49114,0.38664 -0.82553,1.17038 -0.48069,1.14948 -0.67924,2.34076 z m -5.02586,1.51522 0.34484,0.45979 q -2.5602,2.4348 -4.38892,2.4348 -0.74193,0 -1.13902,-0.50159 -0.38665,-0.50159 -0.38665,-1.60927 0,-2.23626 1.35848,-4.45161 1.52567,-2.51841 3.64698,-2.51841 0.74194,0 1.12858,0.3762 0.39709,0.36574 0.39709,1.01363 0,0.67923 -0.47024,1.33757 -0.47024,0.65834 -1.68242,1.36893 -0.60609,0.34484 -2.59155,1.24352 -0.094,0.56429 -0.094,1.07633 0,0.74194 0.2299,1.03453 0.24034,0.2926 0.68968,0.2926 0.42845,0 0.94049,-0.24035 0.68968,-0.32394 2.01681,-1.31667 z m -3.65743,-1.51522 q 1.68242,-0.75239 2.52885,-1.61972 0.57474,-0.60609 0.57474,-1.20173 0,-0.44934 -0.24035,-0.71059 -0.22989,-0.27169 -0.60609,-0.27169 -0.38664,0 -0.75238,0.29259 -0.49114,0.38664 -0.82554,1.17038 -0.48069,1.14948 -0.67923,2.34076 z m -12.47658,-2.05862 -0.40754,-0.41799 q 0.95093,-1.13903 1.89141,-1.68242 0.94049,-0.54339 1.63017,-0.54339 0.26125,0 0.40755,0.13585 0.15674,0.1254 0.15674,0.37619 0,0.30305 -0.0732,0.62699 -0.0627,0.3135 -0.41799,1.50477 1.59882,-1.59882 2.18401,-1.97501 0.98228,-0.63744 1.79737,-0.63744 0.53294,0 0.89868,0.50159 0.36574,0.50159 0.36574,1.51522 0,2.52886 -1.57792,4.80691 -1.57792,2.27806 -3.49023,2.27806 -0.75239,0 -1.50477,-0.40754 l -0.88824,3.44844 q -0.0836,0.31349 -0.0836,0.51204 0,0.38664 0.29259,0.55384 0.44934,0.26124 1.89141,0.42844 l -0.13584,0.52249 q -1.68242,-0.13585 -2.6438,-0.13585 -0.99273,0 -2.57066,0.13585 l 0.13585,-0.52249 q 0.79419,-0.0836 1.14948,-0.43889 0.36574,-0.3553 0.58519,-1.26443 l 1.89141,-7.9314 q 0.53294,-2.21536 0.53294,-2.46616 0,-0.27169 -0.26124,-0.27169 -0.45979,0 -1.75557,1.34802 z m 2.11086,4.93231 q 0.82554,0.82554 1.69287,0.82554 1.25398,0 2.19446,-1.95412 0.95093,-1.95411 0.95093,-3.81418 0,-0.59563 -0.27169,-0.89868 -0.26125,-0.31349 -0.71059,-0.31349 -0.50159,0 -1.12858,0.49114 -0.97183,0.76283 -1.48387,1.51522 -0.36574,0.54339 -0.68969,1.88096 z m -5.94544,-7.53431 q 0.93003,0 1.43162,0.36575 0.51204,0.35529 0.51204,0.82553 0,0.28214 -0.21944,0.49114 -0.209,0.209 -0.51204,0.209 -0.19855,0 -0.34485,-0.0836 -0.14629,-0.0941 -0.41799,-0.44934 -0.51204,-0.67924 -1.01363,-0.67924 -0.42844,0 -0.76284,0.33439 -0.32394,0.32395 -0.32394,0.81509 0,0.42844 0.209,0.83598 0.20899,0.3971 1.05543,1.29578 1.15992,1.23308 1.15992,2.34075 0,1.10768 -0.94048,1.94367 -0.94048,0.82553 -2.42435,0.82553 -1.24353,0 -1.84962,-0.50159 -0.60609,-0.51204 -0.60609,-1.25397 0,-0.36575 0.2299,-0.60609 0.22989,-0.24035 0.56429,-0.24035 0.29259,0 0.50159,0.19855 0.20899,0.18809 0.20899,0.44934 0,0.1045 -0.0209,0.27169 -0.0104,0.13585 -0.0104,0.2299 0,0.34484 0.29259,0.58519 0.28214,0.24034 0.77329,0.24034 0.56428,0 0.99273,-0.18809 0.42844,-0.19855 0.66878,-0.58519 0.24035,-0.39709 0.24035,-0.78374 0,-0.37619 -0.2299,-0.75238 -0.21944,-0.3762 -1.00318,-1.24353 -1.08678,-1.21218 -1.08678,-2.33031 0,-1.02408 0.82554,-1.78691 0.82553,-0.77329 2.10041,-0.77329 z m -13.9286,6.17584 0.34484,0.45979 q -2.5602,2.4348 -4.38892,2.4348 -0.74193,0 -1.13902,-0.50159 -0.38665,-0.50159 -0.38665,-1.60927 0,-2.23626 1.35848,-4.45161 1.52567,-2.51841 3.64698,-2.51841 0.74194,0 1.12858,0.3762 0.39709,0.36574 0.39709,1.01363 0,0.67923 -0.47024,1.33757 -0.47024,0.65834 -1.68242,1.36893 -0.60609,0.34484 -2.59155,1.24352 -0.0941,0.56429 -0.0941,1.07633 0,0.74194 0.2299,1.03453 0.24034,0.2926 0.68968,0.2926 0.42845,0 0.94049,-0.24035 0.68968,-0.32394 2.01681,-1.31667 z m -3.65743,-1.51522 q 1.68242,-0.75239 2.52885,-1.61972 0.57474,-0.60609 0.57474,-1.20173 0,-0.44934 -0.24035,-0.71059 -0.22989,-0.27169 -0.60609,-0.27169 -0.38664,0 -0.75238,0.29259 -0.49114,0.38664 -0.82554,1.17038 -0.48069,1.14948 -0.67923,2.34076 z m -4.24213,1.92276 0.27169,0.38664 q -0.96138,1.06588 -1.97501,1.69287 -0.68969,0.42844 -1.13903,0.42844 -0.36574,0 -0.59564,-0.29259 -0.21944,-0.2926 -0.21944,-0.90914 0,-0.41799 0.16719,-1.21217 0.17765,-0.80464 0.98229,-3.43799 0.35529,-1.29577 0.35529,-1.51522 0,-0.35529 -0.35529,-0.35529 -0.4389,0 -1.09723,0.43889 -0.91959,0.60609 -1.63017,1.54657 -0.44934,0.60609 -0.72104,1.79737 l -0.83598,3.63653 h -1.55702 q 0.50159,-1.82872 0.77328,-2.98865 l 1.53612,-6.70877 q 0.41799,-1.84962 1.09723,-2.84235 0.68969,-1.00318 1.78692,-1.59882 1.10768,-0.59564 2.18401,-0.59564 0.44934,0 0.71058,0.21945 0.26125,0.21945 0.26125,0.55384 0,0.28214 -0.26125,0.50159 -0.25079,0.209 -0.68968,0.209 -0.2508,0 -0.64789,-0.0523 -0.89868,-0.1254 -1.24353,-0.1254 -0.48069,0 -0.78373,0.38664 -0.30305,0.38664 -0.62699,1.81827 l -1.17038,5.1622 q 1.24353,-1.30622 2.7065,-2.20491 0.85688,-0.53294 1.37937,-0.53294 0.40755,0 0.63744,0.2508 0.2299,0.24034 0.2299,0.67924 0,0.35529 -0.0836,0.71058 -0.13585,0.61654 -0.63744,2.23626 -0.67924,2.23626 -0.80463,2.77965 -0.11495,0.54339 -0.11495,0.97183 0,0.1672 0.0523,0.2508 0.0627,0.0836 0.17764,0.0836 0.2508,0 0.94049,-0.59564 0.38664,-0.32394 0.94048,-0.77328 z m -13.73055,-8.1822 1.66152,-0.63744 -0.75239,2.92595 h 2.16311 l -0.16719,0.74194 h -2.16311 l -0.91959,3.50068 q -0.42844,1.57792 -0.42844,2.19446 0,0.28214 0.11495,0.40754 0.1254,0.1254 0.33439,0.1254 0.32395,0 0.99273,-0.38664 0.87779,-0.51204 1.67197,-1.15993 l 0.3971,0.48069 q -2.28851,1.72422 -3.0618,2.11086 -0.77328,0.38664 -1.24352,0.38664 -0.38665,0 -0.61654,-0.28214 -0.21945,-0.28215 -0.21945,-0.91959 0,-0.75238 0.39709,-2.29895 l 1.07633,-4.15902 h -1.69286 l 0.18809,-0.74194 h 1.68242 z m 142.69414,-23.35258 1.66152,-0.63744 -0.75239,2.92594 h 2.16311 l -0.1672,0.74194 h -2.16311 l -0.91958,3.50069 q -0.42844,1.57792 -0.42844,2.19445 0,0.28215 0.11495,0.40755 0.12539,0.12539 0.33439,0.12539 0.32394,0 0.99273,-0.38664 0.87779,-0.51204 1.67197,-1.15993 l 0.39709,0.48069 q -2.2885,1.72422 -3.06179,2.11086 -0.77329,0.38665 -1.24353,0.38665 -0.38664,0 -0.61654,-0.28215 -0.21944,-0.28214 -0.21944,-0.91958 0,-0.75239 0.39709,-2.29896 l 1.07633,-4.15902 h -1.69287 l 0.1881,-0.74194 h 1.68242 z m -6.19625,1.43162 0.68969,-0.1463 -0.78373,2.6438 q -0.47025,1.57792 -0.88824,3.63654 -0.22989,1.11812 -0.22989,1.44207 0,0.32394 0.26124,0.32394 0.1672,0 0.53294,-0.21944 0.64789,-0.38665 1.24353,-0.96139 l 0.33439,0.40755 q -1.19128,1.08678 -1.52567,1.31667 -0.66879,0.45979 -1.27487,0.67924 -0.3971,0.1463 -0.77329,0.1463 -0.2717,0 -0.40754,-0.1254 -0.13585,-0.1254 -0.13585,-0.36574 0,-0.15675 0.0836,-0.42845 l 0.41799,-1.42117 q -0.89868,1.07633 -2.14221,1.84962 -0.76284,0.48069 -1.40027,0.48069 -0.60609,0 -0.93004,-0.42844 -0.43889,-0.57474 -0.43889,-1.50478 0,-1.10768 0.58519,-2.46615 0.59564,-1.35847 1.58837,-2.46615 0.99273,-1.10768 2.08996,-1.63017 0.84644,-0.3971 2.17356,-0.3971 0.3344,0 0.67924,0.0418 z m -1.29577,1.59882 q -0.56429,-0.11495 -0.95093,-0.11495 -0.94049,0 -1.64062,0.52249 -0.70014,0.51204 -1.30623,1.86007 -0.59564,1.33757 -0.59564,2.67515 0,0.71058 0.24035,1.02408 0.24034,0.31349 0.62699,0.31349 0.72103,0 1.54657,-0.77328 0.82553,-0.78374 1.21217,-2.24671 z m -17.3039,-3.03044 1.66152,-0.63744 -0.75238,2.92594 h 2.16311 l -0.1672,0.74194 h -2.16311 l -0.91958,3.50069 q -0.42845,1.57792 -0.42845,2.19445 0,0.28215 0.11495,0.40755 0.1254,0.12539 0.3344,0.12539 0.32394,0 0.99273,-0.38664 0.87778,-0.51204 1.67197,-1.15993 l 0.39709,0.48069 q -2.28851,1.72422 -3.06179,2.11086 -0.77329,0.38665 -1.24353,0.38665 -0.38664,0 -0.61654,-0.28215 -0.21944,-0.28214 -0.21944,-0.91958 0,-0.75239 0.39709,-2.29896 l 1.07633,-4.15902 h -1.69287 l 0.1881,-0.74194 h 1.68241 z m -13.88729,4.05452 -0.35529,-0.36574 q 1.33757,-1.27488 2.13176,-1.69287 0.79418,-0.41799 1.35847,-0.41799 0.21945,0 0.34485,0.094 0.12539,0.094 0.12539,0.21944 0,0.094 -0.0523,0.3344 l -0.47024,2.10041 q 1.06588,-1.18083 2.67515,-2.20491 0.85689,-0.53294 1.41073,-0.53294 0.40754,0 0.63743,0.26124 0.2299,0.26125 0.2299,0.75239 0,0.32394 -0.0941,0.73149 -0.16719,0.67923 -0.87778,2.95729 -0.66879,2.13176 -0.66879,2.8319 0,0.20899 0.0627,0.31349 0.0627,0.1045 0.17765,0.1045 0.30304,0 0.95093,-0.58519 0.45979,-0.41799 0.91958,-0.77329 l 0.26125,0.3762 q -0.96139,1.06588 -1.99592,1.71377 -0.65833,0.41799 -1.08678,0.41799 -0.39709,0 -0.61653,-0.2926 -0.21945,-0.28214 -0.21945,-0.93003 0,-0.93003 1.15993,-4.62926 0.35529,-1.31668 0.35529,-1.53612 0,-0.32395 -0.38664,-0.32395 -0.41799,0 -1.07633,0.43889 -0.98228,0.64789 -1.64062,1.52567 -0.41799,0.56429 -0.70014,1.79737 l -0.84643,3.64698 H 683.673 q 0.43889,-1.56747 0.76283,-2.99909 l 0.93004,-3.97093 q 0.0523,-0.24034 0.0523,-0.34484 0,-0.28214 -0.209,-0.28214 -0.1672,0 -0.48069,0.21944 -0.64789,0.42844 -1.21218,1.04498 z m -3.52109,3.72013 0.34484,0.45979 q -2.5602,2.43481 -4.38892,2.43481 -0.74193,0 -1.13902,-0.50159 -0.38665,-0.50159 -0.38665,-1.60927 0,-2.23626 1.35848,-4.45162 1.52567,-2.5184 3.64698,-2.5184 0.74193,0 1.12858,0.37619 0.39709,0.36574 0.39709,1.01363 0,0.67924 -0.47024,1.33758 -0.47024,0.65833 -1.68242,1.36892 -0.60609,0.34484 -2.59155,1.24353 -0.094,0.56429 -0.094,1.07633 0,0.74193 0.2299,1.03453 0.24034,0.29259 0.68968,0.29259 0.42845,0 0.94049,-0.24034 0.68968,-0.32395 2.01681,-1.31668 z m -3.65743,-1.51522 q 1.68242,-0.75239 2.52885,-1.61972 0.57474,-0.60609 0.57474,-1.20173 0,-0.44934 -0.24035,-0.71058 -0.22989,-0.2717 -0.60609,-0.2717 -0.38664,0 -0.75238,0.2926 -0.49114,0.38664 -0.82554,1.17037 -0.48069,1.14948 -0.67923,2.34076 z m -16.2385,-2.24671 -0.3135,-0.41799 q 1.03453,-1.03453 1.96457,-1.52567 0.93003,-0.49114 1.46297,-0.49114 0.21945,0 0.32394,0.094 0.11495,0.094 0.11495,0.26124 0,0.209 -0.1672,0.80464 -0.24034,0.87778 -0.33439,1.38982 2.50795,-2.54975 3.83508,-2.54975 0.34484,0 0.52249,0.18809 0.17765,0.1881 0.17765,0.59564 0,0.4389 -0.3135,1.49433 1.19128,-1.24353 2.06906,-1.75557 0.87779,-0.52249 1.36893,-0.52249 0.43889,0 0.67923,0.25079 0.24035,0.2508 0.24035,0.77329 0,0.31349 -0.1045,0.74193 -0.1045,0.42845 -0.76283,2.61246 -0.82554,2.7065 -0.82554,3.22899 0,0.35529 0.2926,0.35529 0.19854,0 0.38664,-0.1254 0.61654,-0.43889 1.26443,-1.08678 l 0.34484,0.37619 q -0.21945,0.17765 -0.82554,0.73149 -0.83598,0.75239 -1.14947,0.94048 -0.60609,0.3553 -1.02408,0.3553 -0.3135,0 -0.55384,-0.3135 -0.24035,-0.30304 -0.24035,-0.84643 0,-0.50159 0.1463,-1.17038 0.14629,-0.67924 0.85688,-3.03044 0.53294,-1.76602 0.53294,-2.14221 0,-0.3553 -0.31349,-0.3553 -0.26125,0 -0.70014,0.26125 -0.89868,0.54339 -1.50477,1.32712 -0.41799,0.54339 -0.73149,1.72422 -0.70013,2.5811 -1.04498,4.21127 h -1.48387 l 1.55702,-6.38483 q 0.1672,-0.68968 0.1672,-0.79418 0,-0.1672 -0.0836,-0.2508 -0.0836,-0.094 -0.24035,-0.094 -0.28214,0 -0.87778,0.4389 -1.03453,0.74193 -1.49432,1.44207 -0.44934,0.68969 -0.77329,2.11086 l -0.80463,3.53203 h -1.49432 l 1.18082,-4.98455 q 0.52249,-2.16311 0.52249,-2.35121 0,-0.24035 -0.18809,-0.24035 -0.40755,0 -1.66152,1.19128 z m -11.2435,0.0418 -0.35529,-0.36574 q 1.33757,-1.27488 2.13176,-1.69287 0.79418,-0.41799 1.35847,-0.41799 0.21945,0 0.34484,0.094 0.1254,0.094 0.1254,0.21944 0,0.094 -0.0522,0.3344 l -0.47024,2.10041 q 1.06588,-1.18083 2.67515,-2.20491 0.85688,-0.53294 1.41072,-0.53294 0.40755,0 0.63744,0.26124 0.2299,0.26125 0.2299,0.75239 0,0.32394 -0.094,0.73149 -0.1672,0.67923 -0.87778,2.95729 -0.66879,2.13176 -0.66879,2.8319 0,0.20899 0.0627,0.31349 0.0627,0.1045 0.17764,0.1045 0.30305,0 0.95094,-0.58519 0.45979,-0.41799 0.91958,-0.77329 l 0.26124,0.3762 q -0.96138,1.06588 -1.99591,1.71377 -0.65834,0.41799 -1.08678,0.41799 -0.39709,0 -0.61654,-0.2926 -0.21944,-0.28214 -0.21944,-0.93003 0,-0.93003 1.15993,-4.62926 0.35529,-1.31668 0.35529,-1.53612 0,-0.32395 -0.38664,-0.32395 -0.418,0 -1.07633,0.43889 -0.98228,0.64789 -1.64062,1.52567 -0.41799,0.56429 -0.70014,1.79737 l -0.84643,3.64698 h -1.55702 q 0.43889,-1.56747 0.76283,-2.99909 l 0.93003,-3.97093 q 0.0523,-0.24034 0.0523,-0.34484 0,-0.28214 -0.20899,-0.28214 -0.1672,0 -0.48069,0.21944 -0.64789,0.42844 -1.21218,1.04498 z m -3.52109,3.72013 0.34484,0.45979 q -2.5602,2.43481 -4.38891,2.43481 -0.74194,0 -1.13903,-0.50159 -0.38665,-0.50159 -0.38665,-1.60927 0,-2.23626 1.35848,-4.45162 1.52567,-2.5184 3.64698,-2.5184 0.74194,0 1.12858,0.37619 0.39709,0.36574 0.39709,1.01363 0,0.67924 -0.47024,1.33758 -0.47024,0.65833 -1.68242,1.36892 -0.60609,0.34484 -2.59155,1.24353 -0.0941,0.56429 -0.0941,1.07633 0,0.74193 0.2299,1.03453 0.24034,0.29259 0.68968,0.29259 0.42845,0 0.94049,-0.24034 0.68968,-0.32395 2.01681,-1.31668 z m -3.65743,-1.51522 q 1.68242,-0.75239 2.52885,-1.61972 0.57474,-0.60609 0.57474,-1.20173 0,-0.44934 -0.24035,-0.71058 -0.22989,-0.2717 -0.60608,-0.2717 -0.38665,0 -0.75239,0.2926 -0.49114,0.38664 -0.82553,1.17037 -0.4807,1.14948 -0.67924,2.34076 z m -7.15762,-6.25943 1.66152,-0.63744 -0.75239,2.92594 h 2.16311 l -0.1672,0.74194 h -2.16311 l -0.91958,3.50069 q -0.42844,1.57792 -0.42844,2.19445 0,0.28215 0.11495,0.40755 0.12539,0.12539 0.33439,0.12539 0.32394,0 0.99273,-0.38664 0.87778,-0.51204 1.67197,-1.15993 l 0.39709,0.48069 q -2.2885,1.72422 -3.06179,2.11086 -0.77329,0.38665 -1.24353,0.38665 -0.38664,0 -0.61654,-0.28215 -0.21944,-0.28214 -0.21944,-0.91958 0,-0.75239 0.39709,-2.29896 l 1.07633,-4.15902 h -1.69287 l 0.1881,-0.74194 h 1.68242 z m -5.34981,8.18219 0.27169,0.38665 q -0.96138,1.06588 -1.97501,1.69287 -0.68969,0.42844 -1.13903,0.42844 -0.36574,0 -0.59564,-0.2926 -0.21944,-0.29259 -0.21944,-0.90913 0,-0.41799 0.16719,-1.21218 0.17765,-0.80463 0.98229,-3.43798 0.35529,-1.29578 0.35529,-1.51522 0,-0.3553 -0.35529,-0.3553 -0.4389,0 -1.09723,0.43889 -0.91959,0.60609 -1.63017,1.54657 -0.44935,0.60609 -0.72104,1.79737 l -0.83598,3.63653 h -1.55703 q 0.5016,-1.82871 0.77329,-2.98864 l 1.53612,-6.70878 q 0.41799,-1.84961 1.09723,-2.84234 0.68969,-1.00318 1.78692,-1.59882 1.10768,-0.59564 2.18401,-0.59564 0.44934,0 0.71058,0.21944 0.26125,0.21945 0.26125,0.55384 0,0.28215 -0.26125,0.5016 -0.25079,0.20899 -0.68968,0.20899 -0.2508,0 -0.64789,-0.0523 -0.89868,-0.1254 -1.24353,-0.1254 -0.48069,0 -0.78373,0.38665 -0.30305,0.38664 -0.62699,1.81826 l -1.17038,5.16221 q 1.24353,-1.30623 2.7065,-2.20491 0.85688,-0.53294 1.37937,-0.53294 0.40755,0 0.63744,0.25079 0.2299,0.24035 0.2299,0.67924 0,0.35529 -0.0836,0.71059 -0.13585,0.61654 -0.63744,2.23626 -0.67924,2.23625 -0.80463,2.77964 -0.11495,0.54339 -0.11495,0.97183 0,0.1672 0.0523,0.2508 0.0627,0.0836 0.17764,0.0836 0.2508,0 0.94049,-0.59564 0.38664,-0.32394 0.94048,-0.77329 z m -11.33754,-6.64607 0.84643,-0.1881 q -0.76284,2.44526 -1.40027,4.90096 -0.4598,1.75557 -0.63744,2.92595 -0.094,0.58518 -0.1045,1.48387 -0.0209,1.50477 -0.33439,2.42435 -0.4389,1.28533 -1.64062,2.06906 -1.19128,0.78374 -2.8319,0.78374 -1.41072,0 -2.22581,-0.66879 -0.80463,-0.65834 -0.80463,-1.51522 0,-0.84643 0.64788,-1.57792 0.48069,-0.55384 2.00637,-1.33758 0.77328,-0.40754 1.45252,-0.83598 -0.77329,0.39709 -1.20173,0.39709 -0.38664,0 -0.68969,-0.35529 -0.29259,-0.36574 -0.29259,-0.96138 0,-1.92277 1.13903,-3.81418 1.14948,-1.90187 2.75875,-2.8528 0.99273,-0.58519 2.48705,-0.58519 0.2926,0 0.72104,0.0209 z m -1.17038,1.54657 q -0.50159,-0.094 -0.88824,-0.094 -0.99273,0 -1.70331,0.52249 -0.71059,0.52249 -1.21218,1.75557 -0.70014,1.74512 -0.70014,2.93639 0,0.49114 0.2717,0.82554 0.28214,0.33439 0.62698,0.33439 0.418,0 1.03454,-0.39709 0.61653,-0.40754 1.00318,-1.01363 0.39709,-0.60609 0.80463,-2.08996 z m -1.42118,5.69514 q -0.71058,0.63744 -2.73785,2.03772 -1.78691,1.21217 -2.19445,1.74511 -0.40755,0.54339 -0.40755,1.14948 0,0.59564 0.52249,1.06588 0.53294,0.48069 1.28533,0.48069 0.71059,0 1.37937,-0.35529 0.66879,-0.34485 1.15993,-1.01363 0.50159,-0.65834 0.68969,-1.49432 0.1881,-0.83599 0.19855,-2.21536 0.0104,-0.30305 0.10449,-1.40028 z m -6.54108,-11.66198 q 0.32394,0 0.53294,0.21945 0.20899,0.20899 0.20899,0.54339 0,0.45979 -0.32394,0.81508 -0.31349,0.34485 -0.71059,0.34485 -0.31349,0 -0.52249,-0.21945 -0.20899,-0.21945 -0.20899,-0.57474 0,-0.47024 0.30304,-0.79418 0.30305,-0.3344 0.72104,-0.3344 z m -4.11722,6.91777 -0.4598,-0.35529 q 1.04498,-1.14948 1.90187,-1.63017 0.86733,-0.49114 1.47342,-0.49114 0.33439,0 0.51204,0.1463 0.17765,0.14629 0.17765,0.39709 0,0.30304 -0.67924,2.57065 -1.10768,3.70968 -1.10768,4.47252 0,0.14629 0.0732,0.25079 0.0731,0.094 0.15675,0.094 0.33439,0 1.71377,-1.29578 l 0.40754,0.3971 q -1.43163,1.34802 -2.08996,1.72421 -0.65834,0.3762 -1.07633,0.3762 -0.36575,0 -0.58519,-0.2299 -0.209,-0.22989 -0.209,-0.63744 0,-1.30622 1.56747,-6.38483 0.0732,-0.24034 0.0732,-0.42844 0,-0.20899 -0.1881,-0.20899 -0.20899,0 -0.48069,0.16719 -0.26124,0.1672 -1.18082,1.06588 z m -2.53881,3.84553 0.35529,0.37619 q -0.81508,0.91959 -1.93321,1.68242 -1.10768,0.75239 -1.82872,0.75239 -0.32394,0 -0.53294,-0.2508 -0.20899,-0.24034 -0.20899,-0.66879 0,-0.83598 0.64788,-3.46933 l 1.12858,-4.58746 q 0.61654,-2.48706 1.03453,-3.33349 0.64789,-1.28533 1.82872,-1.99591 1.19128,-0.71059 2.50795,-0.71059 0.44934,0 0.70014,0.21944 0.26124,0.209 0.26124,0.51204 0,0.3344 -0.25079,0.55384 -0.2508,0.209 -0.73149,0.209 -0.31349,0 -0.88823,-0.1045 -0.50159,-0.0836 -0.93003,-0.0836 -0.42845,0 -0.64789,0.17765 -0.30305,0.2508 -0.55384,1.05543 -0.24035,0.80464 -0.79419,3.17674 l -1.03453,4.37847 q -0.77328,3.29169 -0.77328,3.43799 0,0.33439 0.24034,0.33439 0.2299,0 0.66879,-0.2717 0.86733,-0.54339 1.73467,-1.38982 z m -15.30847,-3.82463 -0.3553,-0.36574 q 1.33758,-1.27488 2.13176,-1.69287 0.79419,-0.41799 1.35848,-0.41799 0.21944,0 0.34484,0.094 0.1254,0.094 0.1254,0.21944 0,0.094 -0.0522,0.3344 l -0.47024,2.10041 q 1.06588,-1.18083 2.67515,-2.20491 0.85688,-0.53294 1.41072,-0.53294 0.40755,0 0.63744,0.26124 0.2299,0.26125 0.2299,0.75239 0,0.32394 -0.094,0.73149 -0.1672,0.67923 -0.87778,2.95729 -0.66879,2.13176 -0.66879,2.8319 0,0.20899 0.0627,0.31349 0.0627,0.1045 0.17764,0.1045 0.30305,0 0.95094,-0.58519 0.45979,-0.41799 0.91958,-0.77329 l 0.26124,0.3762 q -0.96138,1.06588 -1.99591,1.71377 -0.65834,0.41799 -1.08678,0.41799 -0.39709,0 -0.61654,-0.2926 -0.21944,-0.28214 -0.21944,-0.93003 0,-0.93003 1.15992,-4.62926 0.3553,-1.31668 0.3553,-1.53612 0,-0.32395 -0.38664,-0.32395 -0.418,0 -1.07633,0.43889 -0.98229,0.64789 -1.64062,1.52567 -0.418,0.56429 -0.70014,1.79737 l -0.84643,3.64698 h -1.55703 q 0.4389,-1.56747 0.76284,-2.99909 l 0.93003,-3.97093 q 0.0523,-0.24034 0.0523,-0.34484 0,-0.28214 -0.20899,-0.28214 -0.1672,0 -0.4807,0.21944 -0.64788,0.42844 -1.21217,1.04498 z m -3.52109,3.72013 0.34484,0.45979 q -2.5602,2.43481 -4.38892,2.43481 -0.74193,0 -1.13903,-0.50159 -0.38664,-0.50159 -0.38664,-1.60927 0,-2.23626 1.35848,-4.45162 1.52567,-2.5184 3.64698,-2.5184 0.74193,0 1.12858,0.37619 0.39709,0.36574 0.39709,1.01363 0,0.67924 -0.47024,1.33758 -0.47024,0.65833 -1.68242,1.36892 -0.60609,0.34484 -2.59155,1.24353 -0.0941,0.56429 -0.0941,1.07633 0,0.74193 0.2299,1.03453 0.24034,0.29259 0.68968,0.29259 0.42844,0 0.94049,-0.24034 0.68968,-0.32395 2.01681,-1.31668 z m -3.65743,-1.51522 q 1.68241,-0.75239 2.52885,-1.61972 0.57474,-0.60609 0.57474,-1.20173 0,-0.44934 -0.24035,-0.71058 -0.22989,-0.2717 -0.60609,-0.2717 -0.38664,0 -0.75238,0.2926 -0.49114,0.38664 -0.82554,1.17037 -0.48069,1.14948 -0.67923,2.34076 z" />
        <g
           id="g1416"
           transform="translate(438.64546)">
          <path
             style="fill:none;stroke:#f0f0f0;stroke-width:0.661458;stroke-linecap:butt;stroke-linejoin:miter;stroke-miterlimit:4;stroke-dasharray:none;stroke-opacity:1"
             d="m 118.89748,176.89392 h 17.00583"
             id="path1410"
             inkscape:connector-curvature="0" />
          <path
             inkscape:connector-curvature="0"
             id="path1412"
             d="m 130.83399,170.64178 h 5.06932"
             style="fill:none;stroke:#f0f0f0;stroke-width:0.661458;stroke-linecap:butt;stroke-linejoin:miter;stroke-miterlimit:4;stroke-dasharray:none;stroke-opacity:1" />
          <path
             inkscape:connector-curvature="0"
             id="path1414"
             d="m 125.08679,173.76785 h 10.81652"
             style="fill:none;stroke:#f0f0f0;stroke-width:0.661458;stroke-linecap:butt;stroke-linejoin:miter;stroke-miterlimit:4;stroke-dasharray:none;stroke-opacity:1" />
        </g>
      </g>
    </g>
  </g>
</svg>
