<svg width="1576.5" height="808.5" viewBox="0 0 417.11 213.91" xmlns="http://www.w3.org/2000/svg"><path fill="#333" d="M0 0h417.11v213.91H0z"/><path d="M140.754 76.332h-.848l-1.36-1.888q-.502.45-1.067.848-.552.385-1.169.68-.616.283-1.27.45-.643.167-1.31.167-1.452 0-2.736-.488-1.272-.488-2.235-1.413-.95-.938-1.503-2.286-.552-1.349-.552-3.07 0-1.605.552-2.94.553-1.349 1.503-2.312.963-.963 2.235-1.49 1.284-.54 2.735-.54.668 0 1.323.168.655.167 1.271.462.617.295 1.17.694.564.398 1.052.86l1.361-1.63.848-.001zm-3.532-7q0-.718-.282-1.386-.27-.681-.745-1.195-.475-.526-1.117-.834-.63-.322-1.349-.322-.72 0-1.361.244-.63.244-1.105.72-.462.475-.732 1.181-.27.694-.27 1.593t.27 1.605q.27.693.732 1.169.475.475 1.105.719.642.244 1.361.244.72 0 1.349-.308.642-.321 1.117-.835.475-.527.745-1.195.282-.68.282-1.4zm11.037 7h-3.532V57.107h3.532zm9.47-3.365q.205.064.411.09.205.013.41.013.515 0 .99-.142t.886-.398q.424-.27.745-.642.334-.385.54-.847l2.568 2.58q-.488.694-1.13 1.247-.63.552-1.375.937-.732.385-1.554.578-.809.206-1.67.206-1.45 0-2.735-.54-1.271-.54-2.234-1.502-.95-.964-1.503-2.286-.552-1.336-.552-2.929 0-1.63.552-2.98t1.503-2.298q.963-.95 2.234-1.477 1.285-.526 2.736-.526.86 0 1.682.205t1.554.59q.745.386 1.387.951.642.553 1.13 1.246zm1.798-7.23q-.244-.09-.488-.116-.231-.026-.488-.026-.72 0-1.361.27-.63.257-1.105.745-.462.488-.732 1.181-.27.681-.27 1.541 0 .193.013.437.026.244.064.5.052.245.116.476.064.231.167.411zm20.412 10.595h-4.29l-2.735-4.212-2.761 4.212h-4.29l5.022-7.05-5.021-6.782h4.289l2.761 3.943 2.736-3.943h4.289l-5.034 6.781zm25.015-7q0 1.618-.552 2.954t-1.503 2.299q-.95.95-2.234 1.476-1.272.527-2.736.527-1.451 0-2.735-.54-1.272-.539-2.235-1.502-.95-.963-1.503-2.286-.552-1.336-.552-2.928V57.106h3.519v6.421q.283-.36.68-.642.412-.283.874-.462.475-.18.976-.27.5-.103.976-.103 1.464 0 2.736.552 1.284.54 2.234 1.516t1.503 2.312q.552 1.322.552 2.902zm-3.532 0q0-.796-.282-1.477-.27-.694-.745-1.194-.475-.501-1.117-.784-.63-.282-1.349-.282t-1.361.32q-.63.309-1.105.836-.475.513-.745 1.194-.27.668-.27 1.387 0 .796.27 1.477t.745 1.181q.475.501 1.105.797.642.282 1.361.282t1.349-.282q.642-.296 1.117-.797.475-.5.745-1.181.282-.68.282-1.477zm10.305 7h-3.506V62.578h.848l1.155 1.63q.848-.77 1.927-1.18 1.079-.424 2.234-.424h3.096v3.493h-3.096q-.552 0-1.04.205-.488.206-.848.565-.36.36-.565.848t-.205 1.04zm21.783 0h-.848l-1.36-1.888q-.502.45-1.067.848-.552.385-1.169.68-.616.283-1.27.45-.643.167-1.31.167-1.452 0-2.736-.488-1.272-.488-2.235-1.413-.95-.938-1.503-2.286-.552-1.349-.552-3.07 0-1.605.552-2.94.553-1.349 1.503-2.312.963-.963 2.235-1.49 1.284-.54 2.735-.54.668 0 1.323.168.655.167 1.271.462.617.295 1.169.694.565.398 1.053.86l1.361-1.63.848-.001zm-3.532-7q0-.718-.282-1.386-.27-.681-.745-1.195-.475-.526-1.117-.834-.63-.322-1.349-.322-.72 0-1.361.244-.63.244-1.105.72-.462.475-.732 1.181-.27.694-.27 1.593t.27 1.605q.27.693.732 1.169.475.475 1.105.719.642.244 1.361.244.72 0 1.349-.308.642-.321 1.117-.835.475-.527.745-1.195.282-.68.282-1.4zm20.822 7h-.848l-1.36-1.888q-.502.45-1.067.848-.552.385-1.169.68-.616.283-1.27.45-.643.167-1.31.167-1.452 0-2.736-.54-1.272-.552-2.235-1.515-.95-.976-1.503-2.299-.552-1.335-.552-2.902 0-1.554.552-2.89.553-1.335 1.503-2.312.963-.976 2.235-1.528 1.284-.552 2.735-.552.462 0 .95.077.501.077.964.257.475.167.886.45.41.282.693.693v-6.422h3.532zm-3.532-7q0-.718-.282-1.386-.27-.681-.745-1.195-.475-.526-1.117-.834-.63-.322-1.349-.322t-1.361.257q-.63.257-1.105.745-.462.475-.732 1.169-.27.693-.27 1.567 0 .757.27 1.438.27.68.732 1.194.475.514 1.105.81.642.295 1.361.295t1.349-.308q.642-.321 1.117-.835.475-.527.745-1.194.282-.681.282-1.4zM258.12 81.57v-3.53l1.952.025q.514 0 .989-.167t.873-.462q.411-.296.72-.707.308-.398.5-.873-.578.244-1.181.488-.59.244-1.195.244-1.271 0-2.388-.45t-1.965-1.27q-.835-.836-1.323-2.017-.475-1.195-.475-2.671v-7.603h3.493v7.603q0 .732.206 1.284.218.54.577.912.36.36.835.539.488.18 1.04.18.54 0 1.015-.244.488-.257.848-.668.36-.411.565-.925.205-.526.205-1.078v-7.603h3.532v12.02q-.013 1.452-.565 2.723-.552 1.272-1.516 2.222-.95.95-2.221 1.503t-2.723.552zm15.93-17.863h-2.658l-.527-5.792h3.712zm12 12.625h-8.014v-3.493h8.014q.36 0 .616-.257.257-.257.257-.617 0-.372-.257-.488-.256-.115-.616-.115h-3.647q-.912 0-1.708-.347-.797-.347-1.387-.937-.591-.604-.938-1.4-.334-.796-.334-1.708 0-.912.334-1.708.347-.797.938-1.387t1.387-.925q.796-.347 1.708-.347h7.102v3.493h-7.102q-.36 0-.617.257t-.257.617q0 .372.257.642.257.257.617.257h3.647q.899 0 1.695.308.796.295 1.387.835t.938 1.297q.346.757.346 1.656 0 .912-.346 1.708-.347.784-.938 1.387-.59.591-1.387.938-.796.334-1.695.334zm-146.97 38.57q-3.494 0-6.335-1.502-2.808-1.535-4.44-4.213-1.6-2.71-1.6-6.106t1.6-6.073q1.632-2.71 4.44-4.213 2.841-1.535 6.368-1.535 2.971 0 5.355 1.045 2.416 1.045 4.049 3.004l-3.396 3.135q-2.319-2.677-5.747-2.677-2.123 0-3.788.947-1.665.914-2.612 2.58-.915 1.665-.915 3.787 0 2.123.915 3.788.947 1.665 2.612 2.612 1.665.915 3.788.915 3.429 0 5.747-2.71l3.396 3.134q-1.633 1.992-4.05 3.037-2.416 1.045-5.387 1.045zm21.156-.13q-2.776 0-4.996-1.143-2.188-1.175-3.429-3.233-1.24-2.057-1.24-4.67 0-2.611 1.24-4.669 1.241-2.057 3.429-3.2 2.22-1.175 4.996-1.175t4.963 1.175q2.188 1.143 3.429 3.2 1.24 2.058 1.24 4.67t-1.24 4.67q-1.24 2.057-3.429 3.232-2.187 1.143-4.963 1.143zm0-4.18q1.96 0 3.2-1.306 1.274-1.339 1.274-3.56 0-2.22-1.274-3.526-1.24-1.339-3.2-1.339-1.96 0-3.233 1.34-1.273 1.305-1.273 3.526 0 2.22 1.273 3.559 1.274 1.306 3.233 1.306zm31.52-13.646v17.568h-4.833v-2.09q-1.012 1.143-2.416 1.763-1.404.588-3.037.588-3.461 0-5.486-1.992-2.024-1.992-2.024-5.91v-9.927h5.094v9.176q0 4.245 3.559 4.245 1.828 0 2.939-1.176 1.11-1.208 1.11-3.559v-8.686zm10.433 2.318q.914-1.274 2.449-1.927 1.567-.653 3.592-.653v4.702q-.85-.065-1.143-.065-2.188 0-3.429 1.24-1.24 1.21-1.24 3.658v8.294h-5.094V96.945h4.865zm15.893 15.508q-2.188 0-4.278-.523-2.09-.555-3.33-1.371l1.698-3.657q1.175.75 2.84 1.24 1.666.458 3.266.458 3.233 0 3.233-1.6 0-.751-.882-1.078t-2.71-.555q-2.156-.327-3.56-.751t-2.449-1.502q-1.012-1.078-1.012-3.07 0-1.665.947-2.938.98-1.307 2.808-2.025 1.861-.718 4.376-.718 1.861 0 3.69.424 1.861.392 3.07 1.11l-1.699 3.625q-2.318-1.306-5.061-1.306-1.633 0-2.45.457-.816.457-.816 1.175 0 .817.882 1.143.882.327 2.808.62 2.155.36 3.527.784 1.371.392 2.384 1.47 1.012 1.077 1.012 3.004 0 1.633-.98 2.906-.98 1.274-2.873 1.992-1.862.686-4.441.686zm29.458-8.98q0 .098-.098 1.371h-13.29q.36 1.633 1.698 2.58 1.339.947 3.33.947 1.372 0 2.417-.392 1.078-.424 1.992-1.306l2.71 2.939q-2.481 2.84-7.249 2.84-2.971 0-5.257-1.142-2.286-1.176-3.527-3.233-1.24-2.057-1.24-4.67 0-2.58 1.208-4.636 1.24-2.09 3.363-3.233 2.155-1.175 4.8-1.175 2.58 0 4.67 1.11t3.265 3.2q1.208 2.057 1.208 4.8zm-9.11-5.257q-1.731 0-2.907.98t-1.436 2.677h8.653q-.261-1.666-1.437-2.645-1.175-1.012-2.873-1.012zm23.39-3.589h5.094v17.568h-5.094zm2.547-2.45q-1.404 0-2.286-.815-.881-.817-.881-2.025t.881-2.024q.882-.817 2.286-.817t2.286.784q.881.784.881 1.96 0 1.273-.881 2.122-.882.816-2.286.816zm18.763 2.188q3.265 0 5.257 1.96 2.025 1.958 2.025 5.811v10.058h-5.094v-9.274q0-2.09-.915-3.102-.914-1.045-2.645-1.045-1.926 0-3.069 1.208-1.143 1.175-1.143 3.527v8.686h-5.094V96.944h4.865v2.058q1.013-1.11 2.515-1.698 1.502-.62 3.298-.62zm-132.84 59.828l-.037-15.552-7.628 12.812h-2.703l-7.59-12.478v15.218h-5.629v-25.92h4.962l9.701 16.108 9.554-16.107h4.924l.074 25.919zm12.297-19.92h5.776v19.92h-5.776zm2.888-2.777q-1.592 0-2.592-.926t-1-2.296q0-1.37 1-2.295 1-.926 2.592-.926t2.592.889q1 .888 1 2.221 0 1.444-1 2.407-1 .926-2.592.926zm14.692 5.407q1.037-1.444 2.777-2.185 1.777-.74 4.073-.74v5.332q-.963-.074-1.296-.074-2.48 0-3.888 1.407-1.407 1.37-1.407 4.147v9.405h-5.776v-19.921h5.517zm19.137-2.93q4.628 0 7.11 2.222 2.48 2.184 2.48 6.628v11.368h-5.406v-2.481q-1.63 2.777-6.073 2.777-2.295 0-3.999-.778-1.666-.777-2.554-2.147t-.89-3.11q0-2.778 2.075-4.37 2.11-1.592 6.48-1.592h4.59q0-1.889-1.147-2.888-1.148-1.037-3.444-1.037-1.592 0-3.147.518-1.518.482-2.592 1.333l-2.074-4.036q1.63-1.148 3.888-1.777 2.296-.63 4.703-.63zm-.444 16.625q1.48 0 2.629-.667 1.148-.703 1.629-2.036v-2.037h-3.962q-3.555 0-3.555 2.333 0 1.111.852 1.778.888.629 2.407.629zm26.032 3.895q-3.184 0-5.74-1.296-2.517-1.333-3.961-3.666-1.407-2.333-1.407-5.295 0-2.962 1.407-5.295 1.444-2.333 3.962-3.629 2.555-1.333 5.739-1.333 3.147 0 5.48 1.333 2.37 1.296 3.444 3.74l-4.48 2.407q-1.556-2.74-4.481-2.74-2.259 0-3.74 1.481t-1.481 4.036 1.481 4.036 3.74 1.481q2.962 0 4.48-2.74l4.48 2.444q-1.073 2.37-3.443 3.703-2.333 1.333-5.48 1.333zm13.068-27.77h5.776v27.475h-5.776zm31.57 17.58q0 .111-.111 1.555h-15.07q.407 1.852 1.925 2.925 1.518 1.074 3.777 1.074 1.555 0 2.74-.444 1.222-.482 2.259-1.481l3.073 3.332q-2.814 3.222-8.22 3.222-3.37 0-5.962-1.296-2.592-1.333-3.999-3.666t-1.407-5.295q0-2.925 1.37-5.258 1.407-2.37 3.814-3.666 2.444-1.333 5.443-1.333 2.926 0 5.295 1.259 2.37 1.259 3.703 3.629 1.37 2.332 1.37 5.443zm-10.331-5.962q-1.963 0-3.296 1.111-1.333 1.111-1.629 3.037h9.813q-.297-1.889-1.63-3-1.333-1.148-3.258-1.148zm21.811 16.152q-2.48 0-4.85-.593-2.37-.629-3.777-1.555l1.925-4.147q1.333.852 3.221 1.407 1.889.519 3.703.519 3.666 0 3.666-1.815 0-.851-1-1.222t-3.073-.63q-2.444-.37-4.036-.85t-2.777-1.704q-1.148-1.222-1.148-3.48 0-1.89 1.074-3.333 1.11-1.481 3.184-2.296 2.11-.814 4.962-.814 2.11 0 4.184.48 2.11.445 3.48 1.26l-1.925 4.11q-2.629-1.481-5.74-1.481-1.85 0-2.776.518-.926.519-.926 1.333 0 .926 1 1.296t3.184.704q2.444.407 4 .888 1.554.445 2.702 1.667t1.148 3.406q0 1.852-1.11 3.296-1.111 1.444-3.26 2.258-2.11.778-5.035.778z" style="font-variant-caps:normal;font-variant-east-asian:normal;font-variant-ligatures:normal;font-variant-numeric:normal" fill="#e9e9e9"/><g fill="#fff" transform="translate(126.16 3.392)"><circle cx="-71.577" cy="5.611" r="9.003"/><circle cx="-62.499" cy="20.937" r="9.003"/><circle cx="-56.133" cy="37.913" r="9.003"/><circle cx="-50.946" cy="55.361" r="9.003"/><circle cx="-49.767" cy="73.399" r="9.003"/><circle cx="-54.011" cy="91.318" r="9.003"/><circle cx="-61.321" cy="107.82" r="9.003"/><circle cx="-69.455" cy="123.97" r="9.003"/><circle cx="-78.792" cy="139.31" r="9.003"/><circle cx="-83.46" cy="156.99" r="9.003"/><circle cx="-85.461" cy="174.66" r="9.003"/><circle cx="-80.125" cy="191.33" r="9.003"/><circle cx="-65.454" cy="201.52" r="9.003"/></g><path d="M344.786 71.88l1.69-23.468-16.613 16.663 15.163-17.993-23.234 3.715 22.843-5.644-20.98-10.65 21.797 8.86-10.713-20.949 12.426 19.98 3.647-23.245-1.691 23.468 16.613-16.663-15.162 17.993 23.233-3.715-22.843 5.644 20.98 10.65-21.797-8.86 10.713 20.949-12.426-19.98z" fill="#f8e8a8"/></svg>