<svg xmlns="http://www.w3.org/2000/svg" width="1578.63" height="811.035" viewBox="0 0 417.679 214.586"><path fill="#f0f0f0" d="M203.632 64.894h213.981v149.108h-213.98z"/><path d="M.066 0L0 214.586h417.613L417.679 0zm345.157 65.337c.963-.092.114 1.12-4.15 6.102-4.125 4.82-27.35 32.334-106.379 126.05-7.117 8.44-13.278 15.733-13.692 16.206l-.752.86h-11.13l.464-.555c2.725-3.27 135.11-148.563 135.424-148.63.08-.016.15-.026.215-.032zm3.977.008c2.55-.019 5.966.298 5.97.603.002.168-1.96 5.069-4.366 10.89-2.406 5.82-16.135 39.158-30.51 74.083l-26.135 63.5-34.205.066c-27.36.054-34.158 0-34-.265.11-.182 24.907-30.75 55.108-67.931 30.202-37.18 57.304-70.578 60.225-74.216l5.308-6.614 1.58-.091c.315-.018.66-.023 1.024-.025zm9.856.372c2.33-.015 6.605.244 6.87.504.195.19.745 6.19 1.53 16.57.677 8.95 1.822 23.951 2.539 33.337.716 9.386 1.84 24.15 2.497 32.809.657 8.658 2.031 26.675 3.05 40.034 1.02 13.36 1.853 24.582 1.853 24.937v.645H309.87l.15-.596c.084-.327 4.21-13.27 9.169-28.765 8.463-26.444 8.988-28.2 8.54-28.525-.271-.199-.966-.309-1.628-.264l-1.166.074-9.22 26.326c-5.069 14.48-9.648 27.546-10.177 29.038l-.96 2.712h-5.225l.562-1.521c3.087-8.283 56.028-146.98 56.15-147.1.704-.704.011 1.622-3.382 11.335-2.141 6.131-3.83 11.31-3.754 11.51.179.464.54.465.927 0 .166-.202 1.904-5.405 3.86-11.56 1.958-6.154 3.701-11.275 3.879-11.385.124-.077.686-.11 1.463-.116zm8.359.413c.325-.03.726.058.843.248.175.283 25.273 146.955 25.276 147.712.003.426-.433.463-5.407.463h-5.408l-.157-1.124c-.085-.619-1.222-11.245-2.53-23.615a23240.951 23240.951 0 00-3.035-28.575c-.36-3.347-2.627-24.6-5.035-47.228a43965.519 43965.519 0 00-4.73-44.317c-.192-1.747-.3-3.265-.24-3.374.06-.108.228-.172.423-.19zm-18.488 23.697c-.407.007-.994.536-.794.86a.632.632 0 001.125-.108c.087-.228.045-.525-.091-.661a.32.32 0 00-.24-.091zm-.769 2.067c-.272.02-.563.247-.62.645-.073.513.016.602.53.53.41-.06.62-.268.62-.621 0-.394-.257-.575-.53-.554zm-.752 2.274c-.653 0-1.107.62-.81 1.1.297.48 1.292.115 1.38-.505.068-.479-.046-.595-.57-.595zm-.802 2.381c-.428 0-.719.188-.827.53-.227.715.066 1.106.752 1.008.4-.057.595-.3.654-.81.071-.622-.014-.728-.58-.728zm-.976 2.927c-.304.024-.646.203-.885.587-.226.364-.2.523.108.72.62.395 1.016.315 1.34-.29.35-.654-.057-1.057-.563-1.017zm-.843 2.67c-.047.002-.098.003-.149.009-.821.098-1.415 1.446-.81 1.835.56.361 1.11.156 1.455-.537.406-.815.204-1.326-.496-1.307zm-1.406 3.432c-.515-.019-.653.137-.876.777-.161.461-.229.946-.15 1.075.216.349 1.335.28 1.646-.1.15-.181.314-.628.364-.991.08-.572-.028-.675-.744-.744a3.67 3.67 0 00-.24-.017zm-1.025 3.671c-.8 0-.939.105-1.207.918-.373 1.128-.191 1.463.785 1.463.606 0 .808-.164 1.042-.835.465-1.335.376-1.546-.62-1.546zm-1.356 4.01c-.48.012-.92.385-1.265 1.091-.64 1.31-.43 1.836.686 1.729.752-.073.906-.224 1.249-1.216.347-1.005.347-1.173 0-1.397a1.17 1.17 0 00-.67-.207zm-1.695 4.854c-.856 0-.951.088-1.397 1.29-.366.983-.406 1.374-.174 1.653.491.592 1.498.436 1.984-.306.242-.369.456-1.113.472-1.653.028-.95.004-.984-.885-.984zm-1.745 5.432c-.475.021-.96.134-1.108.322-.396.506-1.061 2.67-.934 3.043.064.187.558.33 1.125.33.852 0 1.04-.11 1.273-.727.6-1.592.832-2.522.694-2.745-.109-.177-.574-.244-1.05-.223zm-2.282 6.184c-.384-.009-.739.05-.884.207-.468.502-1.486 3.726-1.249 3.952.11.105.496.241.86.306.364.066.721.132.794.15.073.017.283-.063.471-.183.313-.198 1.376-3.206 1.38-3.91.004-.295-.73-.506-1.372-.521zm-2.943 7.318c-.102.01-.197.028-.273.058-.414.159-2.013 4.403-1.836 4.87.067.173.49.363.951.421.46.058.86.126.885.15.024.022.234-.029.463-.117.38-.146 1.745-3.85 1.745-4.737 0-.346-1.221-.716-1.935-.645zm-3.564 8.657l-.57 1.546a925.86 925.86 0 01-.984 2.654c-.546 1.46-.4 2.036.57 2.249 1.705.375 1.777.3 2.845-2.803.612-1.778.903-2.991.752-3.142-.135-.135-.78-.299-1.43-.372l-1.183-.133z" fill="#303030" fill-rule="evenodd" color="#000"/><path d="M168.9 76.713l-8.735 24.217q-.491 1.342-1.229 2.118-.718.794-1.796 1.134-1.058.34-2.627.34h-1.154v-5.029h1.154q.832 0 1.38-.378.567-.359.85-1.19l7.279-21.212zm-18.13 0h4.877l6.598 17.052-3.27 4.178zm-7.241 7.184q0-1.361-.908-2.099-.907-.737-2.57-.737-1.097 0-2.175.36-1.077.359-1.909 1.001l-3.214-3.157q1.172-1.342 3.1-2.08 1.929-.756 4.273-.756 2.571 0 4.386.87 1.815.85 2.76 2.496.964 1.625.964 3.932v12.61h-4.707zm-5.464 12.723q-3.157 0-4.726-1.494-1.55-1.512-1.55-4.575 0-2.91 1.74-4.367 1.757-1.455 5.255-1.455h4.915l.265 3.95h-5.161q-1.172 0-1.758.473-.587.454-.587 1.4 0 .964.738 1.436.737.454 2.23.454 2.08 0 3.082-.473 1.02-.472 1.02-1.474l.398 2.854q-.113 1.059-.983 1.796-.85.738-2.155 1.116-1.286.359-2.723.359zm-36.978-19.907h4.972l3.479 12.118 4.14-12.118h3.063l4.14 12.118 3.478-12.118h4.972l-6.05 19.623h-3.856l-4.216-12.798-4.215 12.798h-3.857zm-19.396-7.864h5.18v27.487h-5.18zm11.343 15.596q0-1.437-.832-2.23-.813-.795-2.325-.795-1.437 0-2.231.813-.775.794-.775 2.25l-.397-4.348q.888-1.853 2.117-2.78 1.248-.926 3.12-.926 3.1 0 4.801 2.099 1.702 2.08 1.702 5.898v11.91h-5.18zm-25.257 19.87q-2.344 0-4.197-.833-1.834-.813-2.855-2.306l3.479-3.195q.661.718 1.588 1.097.926.397 1.928.397 1.626 0 2.647-.889 1.04-.889 1.04-2.458V76.713h5.18V95.75q0 2.704-1.04 4.632-1.021 1.928-3.006 2.93-1.966 1.002-4.764 1.002zm-.926-7.695q-2.08 0-3.574-1.002-1.474-1.002-2.25-2.893-.774-1.909-.774-4.593v-3.139q0-2.703.775-4.631.775-1.929 2.25-2.93 1.493-1.003 3.573-1.003 1.569 0 2.854.946 1.305.926 2.099 2.646l-.397 4.349q0-1.002-.34-1.702-.341-.7-1.003-1.059-.642-.378-1.569-.378-1.455 0-2.268 1.002-.794.983-.794 2.78v3.119q0 1.758.794 2.722.813.964 2.268.964.927 0 1.57-.36.661-.358 1.001-1.039.34-.68.34-1.645l.265 4.48q-.605 1.608-1.852 2.496-1.248.87-2.968.87zM50.78 68.849h5.18v5.18h-5.18zm0 7.864h5.18v19.623h-5.18zm-10.605-7.864h5.18v27.487h-5.18zm-15.049 0h5.18v27.487h-5.18zm2.401 11.361H43.54v4.991H27.528zm241.586-26.448q-2.57 0-3.78-1.304-1.192-1.323-1.192-3.894V28.335h5.18v18.943q0 .718.284 1.115.283.379.832.379h1.285v4.99zm-6.994-19.717h9.603v4.423h-9.603zm-20.115 0h5.18v19.623h-5.18zm11.343 7.732q0-1.437-.832-2.231-.813-.794-2.325-.794-1.437 0-2.231.813-.775.794-.775 2.25l-.397-4.349q.888-1.852 2.117-2.779 1.248-.926 3.12-.926 3.1 0 4.801 2.098 1.702 2.08 1.702 5.899v11.91h-5.18zM229.622 53.95q-2.836 0-4.859-1.02-2.004-1.04-3.062-3.006-1.059-1.985-1.059-4.764v-2.212q0-2.912 1.002-4.972 1.021-2.06 2.95-3.138 1.946-1.078 4.688-1.078 2.57 0 4.405 1.286 1.833 1.285 2.779 3.743.964 2.438.964 5.898v1.286h-13.423v-3.498h8.696l-.056-.454q-.208-1.701-1.078-2.627-.85-.927-2.287-.927-1.872 0-2.912 1.116-1.02 1.115-1.02 3.157v2.495q0 2.004 1.115 3.1 1.134 1.097 3.157 1.097 1.04 0 2.06-.359 1.022-.378 1.853-1.059l3.384 3.006q-1.531 1.4-3.44 2.174-1.91.756-3.857.756zm-18.735-11.607q0-1.72-.832-2.647-.813-.945-2.325-.945-1.493 0-2.306.907-.794.889-.794 2.534l-.964-4.538q.926-1.871 2.4-2.873 1.494-1.021 3.309-1.021 2.117 0 3.61 1.002 1.513 1.002 2.288 2.93.794 1.929.794 4.632v11.343h-5.18zm-22.875-8.3h5.18v19.624h-5.18zm11.438 8.3q0-1.72-.851-2.647-.85-.945-2.4-.945-1.438 0-2.232.813-.775.794-.775 2.25l-.397-4.349q.87-1.814 2.174-2.76 1.305-.945 3.063-.945 2.08 0 3.554 1.002 1.493 1.002 2.269 2.93.775 1.929.775 4.632v11.343h-5.18zm-33.065-8.3h5.18v19.624h-5.18zm11.343 7.733q0-1.437-.832-2.231-.813-.794-2.325-.794-1.437 0-2.231.813-.775.794-.775 2.25l-.397-4.349q.888-1.852 2.117-2.779 1.248-.926 3.12-.926 3.1 0 4.801 2.098 1.702 2.08 1.702 5.899v11.91h-5.18zM154.002 53.95q-2.835 0-4.858-1.02-2.004-1.04-3.063-3.006-1.059-1.985-1.059-4.764v-2.212q0-2.912 1.002-4.972 1.021-2.06 2.95-3.138 1.947-1.078 4.688-1.078 2.571 0 4.405 1.286 1.834 1.285 2.779 3.743.964 2.438.964 5.898v1.286h-13.423v-3.498h8.697l-.057-.454q-.208-1.701-1.078-2.627-.85-.927-2.287-.927-1.872 0-2.911 1.116-1.021 1.115-1.021 3.157v2.495q0 2.004 1.115 3.1 1.134 1.097 3.157 1.097 1.04 0 2.06-.359 1.022-.378 1.854-1.059l3.384 3.006q-1.532 1.4-3.441 2.174-1.91.756-3.857.756zm-15.559-.189q-2.57 0-3.78-1.304-1.192-1.323-1.192-3.894V28.335h5.18v18.943q0 .718.284 1.115.284.379.832.379h1.285v4.99zm-6.994-19.717h9.603v4.423h-9.603zm-20.115-7.865h5.18v27.488h-5.18zm11.343 15.597q0-1.437-.832-2.231-.813-.794-2.325-.794-1.437 0-2.231.813-.775.794-.775 2.25l-.397-4.349q.888-1.852 2.117-2.779 1.248-.926 3.12-.926 3.1 0 4.801 2.098 1.702 2.08 1.702 5.899v11.91h-5.18zM97.42 61.646q-2.344 0-4.197-.832-1.834-.813-2.855-2.306l3.479-3.195q.661.718 1.588 1.096.926.397 1.928.397 1.626 0 2.647-.888 1.04-.889 1.04-2.458V34.045h5.18v19.037q0 2.703-1.04 4.632-1.021 1.928-3.006 2.93-1.966 1.002-4.764 1.002zm-.927-7.695q-2.08 0-3.573-1.001-1.474-1.002-2.25-2.893-.774-1.91-.774-4.594v-3.138q0-2.703.775-4.632.775-1.928 2.25-2.93 1.493-1.002 3.572-1.002 1.57 0 2.855.945 1.305.927 2.099 2.647l-.397 4.348q0-1.002-.34-1.701-.341-.7-1.003-1.059-.642-.378-1.569-.378-1.455 0-2.268 1.002-.794.983-.794 2.779v3.12q0 1.757.794 2.721.813.965 2.268.965.927 0 1.57-.36.661-.359 1.001-1.04.34-.68.34-1.644l.265 4.48q-.605 1.607-1.852 2.496-1.248.87-2.969.87zm-16.069-27.77h5.18v5.18h-5.18zm0 7.864h5.18v19.623h-5.18zm-5.728 13.139q0 .718.397 1.115.416.378 1.172.378h.87v4.99h-2.647q-2.363 0-3.667-1.36-1.305-1.361-1.305-3.838V26.18h5.18zM47.89 34.044h5.18v19.624h-5.18zm11.343 7.733q0-1.437-.832-2.231-.813-.794-2.325-.794-1.437 0-2.231.813-.775.794-.775 2.25l-.397-4.349q.888-1.852 2.117-2.779 1.248-.926 3.12-.926 3.1 0 4.801 2.098 1.702 2.08 1.702 5.899v11.91h-5.18zM25.127 26.18h5.18v27.488h-5.18zM27 48.677h16.54v4.99H26.999zm0-11.154h14.46v4.991H27zm0-11.343h16.54v4.991H26.999z" style="line-height:1.25;-inkscape-font-specification:'Bahnschrift, @wght=700,wdth=100.0';font-variant-ligatures:normal;font-variant-caps:normal;font-variant-numeric:normal;font-variant-east-asian:normal;font-variation-settings:'wdth' 100,'wght' 700" font-weight="400" font-size="38.717" font-family="Bahnschrift" letter-spacing="0" fill="#f0f0f0"/><path d="M356.086 61.14l1.691-23.47-16.613 16.663 15.162-17.993-23.234 3.716 22.842-5.644-20.98-10.651 21.797 8.86-10.713-20.95 12.427 19.981 3.646-23.245-1.691 23.469 16.613-16.663-15.162 17.993 23.234-3.716-22.843 5.645 20.981 10.65-21.797-8.86 10.713 20.95-12.427-19.981z" fill="#fff"/><path style="line-height:1.25;-inkscape-font-specification:'Monotype Corsiva, Italic';font-variant-ligatures:normal;font-variant-caps:normal;font-variant-numeric:normal;font-variant-east-asian:normal" d="M192.658 171.656l1.661-.637-.752 2.926h2.163l-.167.742H193.4l-.92 3.5q-.429 1.578-.429 2.195 0 .282.115.407.126.126.335.126.324 0 .993-.387.877-.512 1.672-1.16l.397.481q-2.289 1.724-3.062 2.11-.773.387-1.244.387-.386 0-.616-.282-.22-.282-.22-.92 0-.752.397-2.298l1.077-4.16h-1.693l.188-.741h1.682zm-5.35 8.183l.271.386q-.96 1.066-1.975 1.693-.69.428-1.139.428-.365 0-.595-.292-.22-.293-.22-.91 0-.417.168-1.211.177-.805.982-3.438.355-1.296.355-1.516 0-.355-.355-.355-.44 0-1.097.439-.92.606-1.63 1.547-.45.606-.722 1.797l-.836 3.636h-1.557q.502-1.828.774-2.988l1.536-6.709q.418-1.85 1.097-2.842.69-1.004 1.787-1.6 1.108-.595 2.184-.595.45 0 .71.22.262.22.262.553 0 .283-.261.502-.251.21-.69.21-.251 0-.648-.053-.899-.126-1.244-.126-.48 0-.783.387-.303.387-.627 1.818l-1.17 5.162q1.243-1.306 2.706-2.204.857-.533 1.38-.533.407 0 .637.25.23.24.23.68 0 .355-.084.71-.136.617-.638 2.237-.679 2.236-.804 2.78-.115.543-.115.971 0 .167.052.25.063.084.178.084.25 0 .94-.595.387-.324.94-.774zm-11.338-6.647l.847-.188q-.763 2.446-1.4 4.901-.46 1.756-.638 2.926-.094.585-.105 1.484-.02 1.505-.334 2.424-.439 1.286-1.64 2.07-1.192.783-2.832.783-1.411 0-2.226-.669-.805-.658-.805-1.515 0-.846.648-1.578.48-.554 2.006-1.337.774-.408 1.453-.836-.773.397-1.202.397-.386 0-.69-.355-.292-.366-.292-.962 0-1.923 1.139-3.814 1.15-1.902 2.759-2.853.992-.585 2.487-.585.292 0 .72.02zm-1.17 1.547q-.502-.094-.888-.094-.993 0-1.704.522-.71.523-1.212 1.756-.7 1.745-.7 2.936 0 .492.272.826.282.334.627.334.418 0 1.034-.397.617-.407 1.003-1.013.397-.606.805-2.09zm-1.421 5.695q-.71.638-2.738 2.038-1.787 1.212-2.195 1.745-.407.543-.407 1.15 0 .595.522 1.065.533.481 1.286.481.71 0 1.379-.355.669-.345 1.16-1.014.502-.658.69-1.494.188-.836.198-2.216.01-.303.105-1.4zm-6.541-11.662q.324 0 .533.22.209.209.209.543 0 .46-.324.815-.314.345-.711.345-.313 0-.522-.22-.21-.219-.21-.574 0-.47.304-.794.303-.335.72-.335zm-4.118 6.918l-.46-.355q1.046-1.15 1.902-1.63.868-.492 1.474-.492.334 0 .512.147.178.146.178.397 0 .303-.68 2.57-1.107 3.71-1.107 4.473 0 .146.073.25.073.095.157.095.334 0 1.713-1.296l.408.397q-1.432 1.348-2.09 1.724-.658.376-1.076.376-.366 0-.586-.23-.209-.23-.209-.637 0-1.306 1.568-6.385.073-.24.073-.428 0-.21-.188-.21-.21 0-.48.168-.262.167-1.182 1.066zm-2.538 3.845l.355.377q-.815.92-1.933 1.682-1.108.752-1.83.752-.323 0-.532-.25-.209-.24-.209-.67 0-.835.648-3.468l1.128-4.588q.617-2.487 1.035-3.333.648-1.286 1.829-1.996 1.191-.71 2.508-.71.449 0 .7.219.261.209.261.512 0 .334-.25.553-.252.21-.732.21-.314 0-.888-.105-.502-.084-.93-.084-.429 0-.648.178-.303.25-.554 1.055-.24.805-.794 3.177l-1.035 4.379q-.773 3.291-.773 3.438 0 .334.24.334.23 0 .669-.272.867-.543 1.735-1.39zm-18.391-5.59h2.497q.617-2.613 1.411-3.888.794-1.274 2.07-2.006 1.274-.742 2.403-.742.637 0 .961.251.324.25.324.596 0 .313-.22.522-.219.21-.574.21-.366 0-1.38-.22-.501-.105-.783-.105-.69 0-1.244.857-.554.846-.888 2.299l-.523 2.226h2.76l-.168.742h-2.79l-1.651 6.667q-.763 3.04-2.445 4.608-1.672 1.568-3.637 1.568-.658 0-.993-.262-.345-.25-.345-.627 0-.324.24-.522.23-.188.67-.188.219 0 .647.052.732.094 1.4.094 1.035 0 1.506-.491.47-.48.94-2.372l2.121-8.527h-2.497zm-5.151-.68q1.024 0 1.703.816.68.815.68 2.267 0 2.32-1.631 4.17-1.63 1.839-3.448 1.839-1.119 0-1.808-.732-.68-.731-.68-1.995 0-2.195 1.255-4.055 1.577-2.31 3.929-2.31zm-.889.784q-.888 0-1.724 1.275-.825 1.265-.825 3.5 0 1.36.512 2.143.376.575 1.003.575.878 0 1.599-1.087.92-1.41.92-3.5 0-1.568-.43-2.237-.417-.669-1.055-.669zm-13.197 5.842l.293.397q-1.4 1.18-2.08 1.567-.94.533-1.484.533-.25 0-.407-.146-.157-.136-.157-.314 0-.177.115-.585l.366-1.275q-1.254 1.348-2.09 1.83-.836.48-1.505.48-.554 0-.93-.48-.376-.492-.376-1.433 0-1.483 1.014-3.406 1.024-1.933 2.267-2.853 1.254-.93 2.289-.93.23 0 .69.073.49-2.038.94-2.968.45-.94 1.16-1.62.71-.679 1.62-1.044.92-.377 1.713-.377.418 0 .67.22.25.22.25.554 0 .324-.23.533-.23.198-.627.198-.261 0-.972-.104-.71-.105-.972-.105-.365 0-.648.23-.271.22-.522.962-.167.47-.763 2.999l-1.484 6.311q-.261 1.118-.261 1.484 0 .397.303.397.188 0 .439-.136.355-.198 1.38-.992zm-2.215-5.392q-.836-.188-1.18-.188-.701 0-1.37.553-.669.544-1.296 2.122-.616 1.578-.616 2.748 0 .533.282.878.293.334.658.334.44 0 1.004-.386.804-.575 1.274-1.4.283-.523.763-2.56zm-9.039 4.932l.345.46q-2.56 2.435-4.389 2.435-.742 0-1.139-.502-.386-.502-.386-1.61 0-2.236 1.358-4.45 1.526-2.52 3.647-2.52.742 0 1.129.377.397.366.397 1.014 0 .679-.47 1.337-.47.658-1.683 1.369-.606.345-2.591 1.244-.095.564-.095 1.076 0 .742.23 1.034.24.293.69.293.428 0 .94-.24.69-.324 2.017-1.317zm-3.657-1.515q1.682-.753 2.529-1.62.574-.606.574-1.202 0-.449-.24-.71-.23-.272-.606-.272-.387 0-.752.293-.491.386-.826 1.17-.48 1.15-.68 2.34zm-5.026 1.515l.345.46q-2.56 2.435-4.389 2.435-.742 0-1.14-.502-.386-.502-.386-1.61 0-2.236 1.359-4.45 1.525-2.52 3.647-2.52.742 0 1.128.377.397.366.397 1.014 0 .679-.47 1.337-.47.658-1.682 1.369-.606.345-2.592 1.244-.094.564-.094 1.076 0 .742.23 1.034.24.293.69.293.428 0 .94-.24.69-.324 2.017-1.317zm-3.657-1.515q1.682-.753 2.528-1.62.575-.606.575-1.202 0-.449-.24-.71-.23-.272-.606-.272-.387 0-.753.293-.49.386-.825 1.17-.48 1.15-.68 2.34zm-12.477-2.059l-.408-.418q.951-1.139 1.892-1.682.94-.544 1.63-.544.261 0 .408.136.156.126.156.376 0 .303-.073.627-.063.314-.418 1.505 1.599-1.599 2.184-1.975.982-.637 1.798-.637.532 0 .898.501.366.502.366 1.515 0 2.53-1.578 4.807-1.578 2.278-3.49 2.278-.753 0-1.505-.407l-.888 3.448q-.084.314-.084.512 0 .387.293.554.45.261 1.891.429l-.136.522q-1.682-.136-2.643-.136-.993 0-2.571.136l.136-.522q.794-.084 1.15-.44.365-.355.584-1.264l1.892-7.931q.533-2.215.533-2.466 0-.272-.261-.272-.46 0-1.756 1.348zm2.11 4.932q.826.826 1.694.826 1.254 0 2.194-1.954.951-1.954.951-3.814 0-.596-.272-.899-.26-.313-.71-.313-.502 0-1.129.49-.972.763-1.484 1.516-.365.543-.69 1.88zm-5.945-7.534q.93 0 1.432.366.512.355.512.825 0 .283-.22.492-.208.209-.511.209-.199 0-.345-.084-.147-.094-.418-.45-.512-.679-1.014-.679-.428 0-.763.335-.324.324-.324.815 0 .428.21.836.208.397 1.055 1.296 1.16 1.233 1.16 2.34 0 1.108-.94 1.944-.941.826-2.425.826-1.244 0-1.85-.502-.606-.512-.606-1.254 0-.366.23-.606t.564-.24q.293 0 .502.198.209.188.209.45 0 .104-.02.271-.011.136-.011.23 0 .345.292.585.282.24.774.24.564 0 .992-.188.429-.198.67-.585.24-.397.24-.783 0-.377-.23-.753-.22-.376-1.004-1.243-1.086-1.213-1.086-2.33 0-1.025.825-1.788.826-.773 2.1-.773zm-13.928 6.176l.345.46q-2.56 2.435-4.39 2.435-.741 0-1.138-.502-.387-.502-.387-1.61 0-2.236 1.359-4.45 1.525-2.52 3.647-2.52.742 0 1.128.377.397.366.397 1.014 0 .679-.47 1.337-.47.658-1.682 1.369-.607.345-2.592 1.244-.094.564-.094 1.076 0 .742.23 1.034.24.293.69.293.428 0 .94-.24.69-.324 2.017-1.317zm-3.658-1.515q1.683-.753 2.53-1.62.574-.606.574-1.202 0-.449-.24-.71-.23-.272-.606-.272-.387 0-.753.293-.49.386-.825 1.17-.481 1.15-.68 2.34zm-4.242 1.923l.272.386q-.961 1.066-1.975 1.693-.69.428-1.14.428-.365 0-.595-.292-.22-.293-.22-.91 0-.417.168-1.211.178-.805.982-3.438.356-1.296.356-1.516 0-.355-.356-.355-.439 0-1.097.439-.92.606-1.63 1.547-.45.606-.721 1.797l-.836 3.636H52.47q.501-1.828.773-2.988l1.536-6.709q.418-1.85 1.098-2.842.69-1.004 1.786-1.6 1.108-.595 2.184-.595.45 0 .711.22.261.22.261.553 0 .283-.261.502-.25.21-.69.21-.25 0-.648-.053-.898-.126-1.243-.126-.48 0-.784.387-.303.387-.627 1.818l-1.17 5.162q1.243-1.306 2.706-2.204.857-.533 1.38-.533.407 0 .637.25.23.24.23.68 0 .355-.084.71-.135.617-.637 2.237-.68 2.236-.805 2.78-.115.543-.115.971 0 .167.053.25.062.084.177.084.251 0 .94-.595.388-.324.941-.774zm-13.73-8.183l1.661-.637-.752 2.926h2.163l-.167.742h-2.163l-.92 3.5q-.428 1.578-.428 2.195 0 .282.115.407.125.126.334.126.324 0 .993-.387.878-.512 1.672-1.16l.397.481q-2.289 1.724-3.062 2.11-.773.387-1.244.387-.386 0-.616-.282-.22-.282-.22-.92 0-.752.398-2.298l1.076-4.16h-1.693l.188-.741h1.683zm142.694-23.352l1.661-.638-.752 2.926h2.163l-.167.742h-2.163l-.92 3.5q-.428 1.579-.428 2.195 0 .282.115.408.125.125.334.125.324 0 .993-.386.878-.512 1.672-1.16l.397.48q-2.289 1.725-3.062 2.111-.773.387-1.243.387-.387 0-.617-.282-.22-.282-.22-.92 0-.752.398-2.299l1.076-4.159h-1.693l.188-.742h1.683zm-6.196 1.431l.69-.146-.784 2.644q-.47 1.578-.889 3.636-.23 1.119-.23 1.442 0 .324.262.324.167 0 .533-.219.648-.387 1.243-.961l.335.407q-1.192 1.087-1.526 1.317-.669.46-1.275.679-.397.146-.773.146-.272 0-.408-.125-.136-.125-.136-.366 0-.157.084-.428l.418-1.421q-.899 1.076-2.142 1.85-.763.48-1.4.48-.607 0-.93-.429-.44-.574-.44-1.504 0-1.108.586-2.466.595-1.359 1.588-2.467.993-1.107 2.09-1.63.846-.397 2.174-.397.334 0 .679.042zm-1.296 1.6q-.564-.116-.951-.116-.94 0-1.64.523-.7.512-1.307 1.86-.596 1.337-.596 2.675 0 .71.24 1.024.241.314.628.314.72 0 1.546-.774.826-.784 1.213-2.246zm-17.304-3.031l1.661-.638-.752 2.926h2.163l-.167.742h-2.163l-.92 3.5q-.428 1.579-.428 2.195 0 .282.115.408.125.125.334.125.324 0 .993-.386.878-.512 1.672-1.16l.397.48q-2.288 1.725-3.062 2.111-.773.387-1.243.387-.387 0-.617-.282-.22-.282-.22-.92 0-.752.398-2.299l1.076-4.159h-1.693l.188-.742h1.683zm-13.887 4.054l-.356-.365q1.338-1.275 2.132-1.693.794-.418 1.359-.418.22 0 .344.094.126.094.126.22 0 .093-.052.333l-.47 2.1q1.065-1.18 2.674-2.204.857-.533 1.411-.533.408 0 .638.261.23.262.23.753 0 .324-.095.731-.167.68-.877 2.957-.67 2.132-.67 2.832 0 .21.064.314.062.104.177.104.303 0 .951-.585.46-.418.92-.773l.261.376q-.961 1.066-1.996 1.714-.658.418-1.087.418-.397 0-.616-.293-.22-.282-.22-.93 0-.93 1.16-4.63.356-1.316.356-1.535 0-.324-.387-.324-.418 0-1.076.439-.983.648-1.641 1.525-.418.565-.7 1.798l-.847 3.647h-1.557q.44-1.568.763-3l.93-3.97q.053-.24.053-.345 0-.282-.21-.282-.167 0-.48.22-.648.428-1.212 1.044zm-3.521 3.72l.344.46q-2.56 2.435-4.388 2.435-.742 0-1.14-.502-.386-.501-.386-1.609 0-2.236 1.358-4.451 1.526-2.519 3.647-2.519.742 0 1.129.376.397.366.397 1.014 0 .68-.47 1.338t-1.683 1.368q-.606.345-2.591 1.244-.094.564-.094 1.076 0 .742.23 1.035.24.292.69.292.428 0 .94-.24.69-.324 2.017-1.317zm-3.658-1.515q1.683-.752 2.529-1.62.575-.606.575-1.201 0-.45-.24-.71-.23-.273-.607-.273-.386 0-.752.293-.491.387-.826 1.17-.48 1.15-.679 2.341zm-16.238-2.247l-.314-.418q1.035-1.034 1.965-1.525.93-.491 1.463-.491.22 0 .324.094.115.094.115.26 0 .21-.168.806-.24.877-.334 1.39 2.508-2.55 3.835-2.55.345 0 .523.188.177.188.177.595 0 .44-.313 1.495 1.191-1.244 2.069-1.756.878-.522 1.369-.522.439 0 .679.25.24.251.24.774 0 .313-.104.742-.105.428-.763 2.612-.826 2.707-.826 3.23 0 .354.293.354.199 0 .387-.125.616-.439 1.264-1.087l.345.376q-.22.178-.826.732-.836.752-1.15.94-.605.356-1.023.356-.314 0-.554-.314-.24-.303-.24-.846 0-.502.146-1.17.146-.68.857-3.031.533-1.766.533-2.142 0-.356-.314-.356-.261 0-.7.262-.899.543-1.505 1.327-.418.543-.731 1.724-.7 2.581-1.045 4.211h-1.484l1.557-6.385q.167-.69.167-.794 0-.167-.083-.25-.084-.095-.24-.095-.283 0-.878.44-1.035.741-1.495 1.441-.45.69-.773 2.111l-.805 3.532h-1.494l1.18-4.984q.523-2.163.523-2.351 0-.24-.188-.24-.407 0-1.661 1.19zm-11.244.042l-.355-.365q1.337-1.275 2.132-1.693.794-.418 1.358-.418.22 0 .345.094.125.094.125.22 0 .093-.052.333l-.47 2.1q1.066-1.18 2.675-2.204.857-.533 1.41-.533.408 0 .638.261.23.262.23.753 0 .324-.094.731-.167.68-.878 2.957-.668 2.132-.668 2.832 0 .21.062.314.063.104.178.104.303 0 .95-.585.46-.418.92-.773l.262.376q-.962 1.066-1.996 1.714-.659.418-1.087.418-.397 0-.617-.293-.219-.282-.219-.93 0-.93 1.16-4.63.355-1.316.355-1.535 0-.324-.386-.324-.418 0-1.077.439-.982.648-1.64 1.525-.418.565-.7 1.798l-.847 3.647h-1.557q.439-1.568.763-3l.93-3.97q.052-.24.052-.345 0-.282-.209-.282-.167 0-.48.22-.648.428-1.213 1.044zm-3.52 3.72l.344.46q-2.56 2.435-4.389 2.435-.742 0-1.139-.502-.387-.501-.387-1.609 0-2.236 1.359-4.451 1.525-2.519 3.647-2.519.742 0 1.128.376.397.366.397 1.014 0 .68-.47 1.338t-1.682 1.368q-.606.345-2.592 1.244-.094.564-.094 1.076 0 .742.23 1.035.24.292.69.292.428 0 .94-.24.69-.324 2.017-1.317zm-3.658-1.515q1.682-.752 2.528-1.62.575-.606.575-1.201 0-.45-.24-.71-.23-.273-.606-.273-.387 0-.753.293-.49.387-.825 1.17-.48 1.15-.68 2.341zm-7.158-6.26l1.662-.637-.753 2.926h2.163l-.167.742h-2.163l-.92 3.5q-.428 1.579-.428 2.195 0 .282.115.408.125.125.334.125.324 0 .993-.386.878-.512 1.672-1.16l.397.48q-2.288 1.725-3.062 2.111-.773.387-1.243.387-.387 0-.617-.282-.22-.282-.22-.92 0-.752.398-2.299l1.076-4.159h-1.693l.188-.742h1.683zm-5.35 8.183l.272.387q-.961 1.065-1.975 1.692-.69.429-1.14.429-.365 0-.595-.293-.22-.292-.22-.909 0-.418.168-1.212.178-.805.982-3.438.356-1.296.356-1.515 0-.356-.356-.356-.439 0-1.097.44-.92.605-1.63 1.546-.45.606-.721 1.797l-.836 3.637h-1.557q.501-1.829.773-2.989l1.536-6.709q.418-1.85 1.097-2.842.69-1.003 1.787-1.599 1.108-.595 2.184-.595.45 0 .711.219.261.22.261.554 0 .282-.261.501-.25.21-.69.21-.25 0-.648-.053-.898-.125-1.243-.125-.48 0-.784.386-.303.387-.627 1.819l-1.17 5.162q1.243-1.306 2.706-2.205.857-.533 1.38-.533.407 0 .637.25.23.241.23.68 0 .355-.084.71-.135.617-.637 2.237-.68 2.236-.805 2.78-.115.543-.115.971 0 .168.053.251.062.084.177.084.251 0 .94-.596.387-.324.941-.773zm-11.337-6.646l.846-.188q-.763 2.445-1.4 4.9-.46 1.756-.638 2.927-.094.585-.104 1.484-.021 1.504-.335 2.424-.438 1.285-1.64 2.069-1.191.784-2.832.784-1.41 0-2.226-.67-.804-.657-.804-1.514 0-.847.647-1.578.481-.554 2.007-1.338.773-.407 1.452-.836-.773.397-1.201.397-.387 0-.69-.355-.293-.366-.293-.961 0-1.923 1.14-3.815 1.149-1.901 2.758-2.852.993-.586 2.487-.586.293 0 .721.021zm-1.17 1.546q-.502-.094-.889-.094-.993 0-1.703.523-.71.522-1.212 1.755-.7 1.746-.7 2.937 0 .491.271.825.282.335.627.335.418 0 1.035-.397.616-.408 1.003-1.014.397-.606.804-2.09zm-1.422 5.696q-.71.637-2.738 2.037-1.787 1.212-2.194 1.745-.408.544-.408 1.15 0 .596.523 1.066.533.48 1.285.48.71 0 1.38-.355.668-.345 1.16-1.013.501-.659.69-1.495.187-.836.198-2.215.01-.303.104-1.4zm-6.541-11.662q.324 0 .533.219.209.209.209.543 0 .46-.324.815-.313.345-.71.345-.314 0-.523-.22-.21-.219-.21-.574 0-.47.304-.794.303-.334.721-.334zm-4.117 6.917l-.46-.355q1.045-1.15 1.902-1.63.867-.491 1.473-.491.335 0 .512.146.178.146.178.397 0 .303-.68 2.57-1.107 3.71-1.107 4.473 0 .147.073.251.073.094.157.094.334 0 1.714-1.296l.407.397q-1.431 1.348-2.09 1.725-.658.376-1.076.376-.366 0-.585-.23-.21-.23-.21-.638 0-1.306 1.568-6.384.074-.24.074-.429 0-.209-.189-.209-.209 0-.48.167-.262.168-1.181 1.066zm-2.539 3.846l.355.376q-.815.92-1.933 1.682-1.108.753-1.829.753-.324 0-.533-.25-.209-.241-.209-.67 0-.836.648-3.469l1.129-4.588q.616-2.487 1.034-3.333.648-1.285 1.83-1.996 1.19-.71 2.507-.71.45 0 .7.219.261.209.261.512 0 .334-.25.554-.251.209-.732.209-.313 0-.888-.105-.502-.083-.93-.083-.429 0-.648.177-.303.251-.554 1.056-.24.804-.794 3.177l-1.035 4.378q-.773 3.292-.773 3.438 0 .334.24.334.23 0 .67-.271.867-.544 1.734-1.39zm-15.308-3.825l-.356-.365q1.338-1.275 2.132-1.693.794-.418 1.358-.418.22 0 .345.094.126.094.126.22 0 .093-.052.333l-.47 2.1q1.065-1.18 2.674-2.204.857-.533 1.411-.533.408 0 .638.261.23.262.23.753 0 .324-.095.731-.167.68-.877 2.957-.67 2.132-.67 2.832 0 .21.064.314.062.104.177.104.303 0 .951-.585.46-.418.92-.773l.261.376q-.961 1.066-1.996 1.714-.658.418-1.087.418-.397 0-.616-.293-.22-.282-.22-.93 0-.93 1.16-4.63.356-1.316.356-1.535 0-.324-.387-.324-.418 0-1.076.439-.983.648-1.641 1.525-.418.565-.7 1.798l-.847 3.647h-1.557q.44-1.568.763-3l.93-3.97q.053-.24.053-.345 0-.282-.21-.282-.167 0-.48.22-.648.428-1.212 1.044zm-3.522 3.72l.345.46q-2.56 2.435-4.389 2.435-.742 0-1.139-.502-.386-.501-.386-1.609 0-2.236 1.358-4.452 1.526-2.518 3.647-2.518.742 0 1.129.376.397.366.397 1.014 0 .68-.47 1.337-.47.659-1.683 1.37-.606.344-2.591 1.243-.094.564-.094 1.076 0 .742.23 1.035.24.292.69.292.428 0 .94-.24.69-.324 2.016-1.317zm-3.657-1.515q1.682-.752 2.529-1.62.575-.606.575-1.201 0-.45-.24-.71-.23-.273-.607-.273-.386 0-.752.293-.491.387-.826 1.17-.48 1.15-.679 2.341z" font-style="italic" font-weight="400" font-size="21.401" font-family="Monotype Corsiva" letter-spacing="1.41" fill="#f0f0f0"/><path d="M25.127 180.408h17.006m-5.069-6.252h5.07m-10.817 3.126h10.816" fill="none" stroke="#f0f0f0" stroke-width=".661"/></svg>